<svg viewBox="0 0 243 40" fill="none" xmlns="http://www.w3.org/2000/svg"><g><circle fill="#FFFFFF" cx="20" cy="20" r="20"></circle><path fill="#231815" d="M20,40C9,40,0,31,0,20S9,0,20,0s20,9,20,20S31,40,20,40z M20,0.2C9.1,0.2,0.2,9.1,0.2,20S9.1,39.8,20,39.8
		S39.8,30.9,39.8,20S30.9,0.2,20,0.2z"></path><path fill="#0C0E0E" d="M19.7,36.4c-0.1,0-0.1,0.1-0.2,0.1c0,0,0,0-0.1,0.1c-0.1,0.1-0.2,0.1-0.3,0c-0.1,0,0-0.1,0.1-0.2
		c0-0.1,0.1-0.2,0.1-0.3c0.2-0.3,0.2-0.3-0.1-0.4c0,0-0.1,0-0.1,0c-0.1-0.1-0.2,0-0.2,0.1c-0.1,0.3-0.1,0.6-0.2,0.9
		c-0.1-0.1-0.1-0.2-0.3-0.2c0.1-0.1,0.2-0.2,0.3-0.3c0,0,0,0,0-0.1c0-0.1-0.4-0.4-0.4-0.3C18.2,36,18,36,17.9,36c0,0,0,0,0,0
		c0-0.1,0-0.2,0-0.2c0.2-0.1,0-0.2-0.1-0.2c-0.1,0-0.1,0-0.2-0.1c-0.2-0.1-0.2,0-0.2,0.1c0,0.1,0,0.3-0.1,0.4c-0.1,0.1-0.2,0-0.4,0
		c0,0,0,0,0,0c0.1,0.1,0.2,0.1,0.3,0.1c0.1,0,0.1,0,0.1,0.1c0,0,0,0.1,0,0.1c0,0.2-0.1,0.2-0.3,0.2c-0.1,0-0.2,0-0.3,0
		c0,0,0,0,0,0.1c0.2,0.1,0.5,0,0.7,0.1c-0.2,0.2-0.2,0.2-0.5,0.2c0,0.1,0.1,0.1,0.1,0.1c-0.2,0.1-0.3,0.2-0.5,0.4
		c0.5,0,0.7-0.3,1.1-0.3c-0.1,0.1,0,0.2-0.2,0.2c-0.2-0.1-0.2,0-0.2,0.2c0,0.1,0,0.2-0.2,0.2c-0.1,0-0.2,0-0.3,0c0,0-0.1,0-0.1,0
		c0,0.2,0,0.3,0.1,0.5c0.1,0.1,0.2,0,0.3,0c0.1,0,0.1,0,0.2,0c0,0,0,0,0,0c0,0,0,0,0,0c0,0.2-0.1,0.3-0.2,0.2c0,0-0.1,0-0.1,0
		c0,0-0.1,0-0.1,0c0,0,0,0.1,0,0.1c0.1,0,0.2,0.1,0.2,0.3c0,0.1,0.1,0.1,0.2,0.1c0.2,0,0.4,0,0.6,0c0.3,0,0.5-0.1,0.8-0.2
		c0.1-0.1,0.2,0,0.2,0c0.1,0.1,0.2,0.2,0.3,0.3c0.1,0.1,0.1,0,0.2,0c0.1-0.1,0.1-0.2,0.3-0.3c0,0,0.1,0,0.1-0.1
		c0-0.1-0.1-0.1-0.1-0.1c-0.2-0.1-0.3-0.1-0.5-0.3c0,0-0.1-0.1,0-0.1c0.2-0.3,0.2-0.6,0.4-1c0.1-0.1,0.1-0.2-0.1-0.3
		c0.1,0,0.2,0,0.3,0c0.1,0,0.1,0,0.1-0.1C19.9,36.6,19.8,36.4,19.7,36.4z M18,36.2c-0.1,0.1-0.1,0.2-0.2,0.2
		C17.8,36.2,17.8,36.2,18,36.2z M18.5,38.1c-0.2,0.2-0.5,0.4-0.8,0.5c0-0.1,0-0.1,0-0.2c0-0.4,0.1-0.7,0.6-0.7c0,0,0.1,0,0.1-0.1
		c0-0.1-0.1,0-0.1,0c-0.1,0-0.3,0-0.4,0c0.1-0.3,0.3-0.3,0.5-0.3c0-0.2-0.1-0.2-0.2-0.3c-0.1-0.2-0.2,0.1-0.4,0.1
		c0.2-0.3,0.4-0.3,0.7-0.2c0.1,0,0.1,0,0.1,0.1c-0.1,0.1-0.1,0.2-0.2,0.4c0,0-0.1,0.1,0,0.2c0.1,0,0.1-0.1,0.2-0.2
		c0,0.2,0,0.5,0,0.7C18.6,38,18.6,38.1,18.5,38.1z M19.1,36.8c-0.1,0.3-0.1,0.5-0.2,0.8c-0.2-0.3-0.2-0.6,0.1-0.9
		c0-0.1,0.1-0.1,0.2-0.1C19.2,36.7,19.1,36.8,19.1,36.8z M23,35.8c-0.2-0.1-0.2-0.1-0.4,0.1c0,0.1-0.1,0.2-0.2,0.2
		c-0.2,0-0.4,0-0.6,0.1c0.1-0.2,0.1-0.4-0.1-0.5c-0.2-0.1-0.4-0.1-0.6,0c-0.1,0-0.1,0.1,0,0.1c0.2,0.1,0.2,0.3,0.3,0.4
		c-0.4,0-0.9,0.1-1.3,0.1c0.3,0.1,0.6,0,1,0c-0.2,0.2-0.4,0.3-0.7,0.4c0,0-0.2,0-0.1,0.1c0.1,0.1,0.1,0.3,0.3,0.3
		c0.1,0,0.1,0,0.1,0.1c0.1,0.5,0.1,1,0.1,1.4c0,0.1,0.1,0.2,0.2,0.2c0.1,0,0.3,0,0.3-0.2c0-0.2,0-0.3-0.1-0.5c0-0.1,0-0.2,0.1-0.2
		c0.3,0,0.5,0,0.7-0.1c0,0,0.1,0,0.1,0c0,0.1,0.1,0.2,0,0.3c0,0.1-0.1,0.1-0.2,0.1c0,0-0.1,0-0.1,0c0,0-0.1,0-0.1,0
		c0,0.1,0,0.1,0.1,0.1c0.1,0,0.2,0.1,0.3,0.2c0,0,0,0.1,0,0.1c0.2,0.1,0.5-0.1,0.5-0.4c0-0.3-0.1-0.6-0.1-0.9c0-0.1,0-0.1,0-0.2
		c0.1-0.2,0-0.2-0.1-0.3c-0.1,0-0.2-0.2-0.3-0.1c-0.2,0.2-0.4,0.2-0.6,0.2c-0.3,0-0.5,0.1-0.8-0.1c0.5-0.1,1-0.2,1.4-0.3
		c0.1,0,0.1,0,0.2,0.1c0.1,0.2,0.3,0.2,0.4,0.1c0.1-0.1,0.1-0.3,0-0.4c-0.3-0.2-0.6-0.2-0.9-0.2c-0.1,0-0.1,0-0.2-0.1
		c0.5,0,0.9-0.1,1.4-0.2C23.1,35.9,23.1,35.9,23,35.8z M22.2,37.8c-0.2,0-0.5,0.1-0.7,0.1c-0.1,0-0.2,0-0.2-0.1c0-0.1,0-0.2,0.2-0.2
		c0.2,0,0.5,0,0.7-0.1c0.1,0,0.1,0.1,0.1,0.2C22.4,37.8,22.3,37.8,22.2,37.8z M21.4,37.2c0.2,0,0.5,0,0.7-0.1c0.1,0,0.1,0,0.2,0.1
		c0,0.1,0,0.1-0.1,0.1c-0.2,0-0.5,0-0.7,0.1c-0.1,0-0.2,0-0.2-0.1C21.3,37.3,21.3,37.2,21.4,37.2z M22.1,36.4c0.1,0,0.2,0.1,0.3,0.2
		c-0.4,0-0.7,0.1-1.1,0.1C21.5,36.5,21.8,36.5,22.1,36.4z M10.2,33.5c0-0.1,0-0.2-0.1-0.3c0-0.1-0.1-0.1-0.1-0.1
		C9.8,33.2,9.7,33,9.6,33c-0.1-0.1-0.1-0.1,0-0.2c0.1-0.1,0.1-0.1,0.2,0c0.2,0.2,0.4,0.4,0.6,0.6c0.1,0.1,0.2,0.2,0.2,0.2
		c0.1-0.1,0-0.2,0-0.3c0-0.2-0.1-0.2-0.2-0.2c-0.2,0.1-0.3,0-0.4-0.1c-0.1-0.1-0.1-0.1-0.2-0.2c-0.1-0.1-0.1-0.1,0-0.2
		c0.1,0,0.1,0,0.2,0c0.2,0.1,0.3,0.3,0.5,0.4c0,0,0.1,0.1,0.1,0c0,0,0-0.1,0-0.1c0-0.1,0-0.3,0-0.4c0-0.1,0-0.1-0.1-0.1
		c-0.6-0.2-1.1-0.6-1.7-1c0,0-0.1-0.1-0.2-0.1c0,0.1,0.1,0.1,0.1,0.2c0.2,0.2,0.4,0.4,0.6,0.6c0.1,0.1,0.1,0.1,0,0.2
		c-0.1,0.1-0.1,0.1-0.2,0c-0.3-0.3-0.5-0.5-0.8-0.8c-0.1,0.1,0,0.1,0.1,0.2c0.2,0.2,0.5,0.4,0.7,0.6c0.1,0.1,0.1,0.1,0,0.2
		c-0.1,0.1-0.1,0.1-0.2,0c-0.1-0.1-0.2-0.2-0.3-0.4c0-0.1-0.1-0.2-0.2-0.3c-0.2,0.3-0.4,0.5-0.7,0.8c-0.1,0.1-0.2,0.1-0.1,0.2
		C7.9,32.9,8,33,8.1,33c0.2,0,0.3,0.1,0.4,0.2c0.2,0.1,0,0.2-0.1,0.2c0,0.1-0.1,0.2-0.2,0.1c-0.2-0.2-0.4-0.4-0.6-0.6
		c0,0.1,0,0.1,0.1,0.2c0.2,0.1,0.3,0.3,0.5,0.4c0.1,0.1,0.1,0.2,0,0.3c-0.1,0.1-0.1,0.1-0.2,0C7.6,33.5,7.3,33.3,7,33
		c0,0.1,0,0.1,0.1,0.2c0.6,0.6,1.2,1.1,1.9,1.7c0.1,0.1,0.1,0.2,0.2,0.2c0.1-0.1,0-0.2,0-0.3c0-0.2-0.1-0.2-0.2-0.2
		c-0.2,0.1-0.3,0-0.4-0.1c-0.1-0.1-0.1-0.1-0.2-0.2c-0.1-0.1,0-0.1,0-0.2C8.5,34,8.5,33.9,8.6,34c0.2,0.2,0.3,0.3,0.5,0.4
		c0,0,0.1,0.1,0.1,0.1c0.1,0,0-0.1,0-0.1c0-0.1-0.1-0.2,0-0.3c0.2,0.2,0.2,0.2,0.4,0c0.1-0.1,0.2-0.3,0.3-0.4
		C10.1,33.6,10.2,33.7,10.2,33.5z M8.7,32.5C9,32.3,9,32.6,9.1,32.6C9,32.7,9,33,8.8,32.8C8.7,32.7,8.5,32.7,8.7,32.5z M8.6,33.2
		c0,0-0.3-0.3-0.3-0.3c0.1-0.1,0.1-0.2,0.2-0.2c0,0,0.3,0.2,0.3,0.3C8.7,33,8.7,33.1,8.6,33.2z M8.7,34c-0.1-0.1-0.1-0.2,0-0.2
		c0.1,0,0.1-0.1,0.2-0.2C9,33.7,9.2,33.8,9.2,34c0,0,0,0,0,0C9.1,34,8.9,34.1,8.7,34z M9.2,34C9.2,34,9.2,34,9.2,34
		C9.3,34,9.3,34,9.2,34C9.2,34,9.2,34,9.2,34z M9.3,33.8c0,0-0.3-0.3-0.3-0.3c0.1-0.1,0.1-0.2,0.2-0.2c0,0,0.3,0.3,0.3,0.3
		C9.4,33.6,9.4,33.7,9.3,33.8z M9.5,33.5c0,0-0.3-0.3-0.3-0.3c0.1-0.1,0.1-0.2,0.2-0.2c0.1,0,0.2,0.2,0.3,0.3
		C9.7,33.3,9.7,33.4,9.5,33.5z M13.6,35c0.1-0.1,0-0.3-0.1-0.4c0-0.1-0.1-0.2-0.2-0.1c-0.2,0.1-0.3,0.1-0.5,0
		c-0.1,0-0.1-0.1-0.2-0.1c0.2,0,0.3-0.2,0.3-0.3c0-0.2-0.3-0.5-0.5-0.5c0.2,0.2,0,0.4,0,0.7c-0.3-0.2-0.6-0.3-0.8-0.6
		c0-0.1-0.1-0.1-0.1-0.1c-0.1,0-0.1,0.1-0.1,0.2c-0.4,0.7-0.7,1.5-1.5,1.9c0,0-0.1,0,0,0.1c0,0.1,0.1,0,0.1,0
		c0.4-0.1,0.9-0.2,1.1-0.6c0.1-0.1,0.2-0.2,0.2-0.4c0,0,0-0.1,0.1,0c0.1,0.1,0.3,0.2,0.4,0.2c0.1,0,0.1,0.1,0,0.2
		c-0.3,0.4-0.7,0.7-1.3,0.7c-0.1,0-0.2,0-0.2,0c0,0-0.1,0-0.1,0c0,0.1,0,0.1,0.1,0.1c0.1,0,0.2,0.1,0.3,0.1c0.6,0.1,1.1,0.1,1.5-0.5
		c0,0,0,0,0.1-0.1c-0.1,0.1-0.1,0.2-0.1,0.3c-0.1,0.4-0.1,0.8,0,1.1c0,0.1,0.1,0.2,0.2,0.1c0.1-0.1,0.2-0.1,0.4-0.1
		c0.1,0,0.1,0.1,0.2,0c0-0.1-0.1-0.1-0.1-0.1c-0.4-0.4-0.4-0.9-0.3-1.5c0.2,0.1,0.4,0.2,0.6,0.3c0.1,0.1,0.2,0.2,0.3,0.1
		c0.1-0.1,0-0.2-0.1-0.3c-0.1-0.3-0.1-0.3-0.3-0.1c-0.2,0.1-0.3,0-0.4-0.1c0,0-0.1,0,0-0.1c0.1-0.1,0.1-0.3,0.3-0.3
		c0.2-0.1,0.1-0.1,0-0.2c0.2,0.1,0.4,0.2,0.6,0.3C13.3,34.9,13.5,35.1,13.6,35z M12.1,34.4c-0.1,0.1-0.1,0.2-0.2,0.4
		c-0.1,0.1-0.1,0.1-0.2,0c-0.5-0.3-0.5-0.3-0.2-0.7c0.1-0.1,0.1-0.2,0.3-0.1c0.1,0.1,0.2,0.1,0.3,0.2c0,0,0.1,0,0.1,0.1
		C12.2,34.3,12.2,34.3,12.1,34.4z M30.3,35.5c-0.2-0.1-0.3-0.3-0.3-0.5c0-0.1,0-0.1-0.1-0.2c-0.1,0.1,0,0.2,0,0.3
		c0,0.1,0.1,0.2-0.1,0.3c-0.1,0-0.2,0-0.2-0.1c-0.4-0.3-0.7-0.7-0.9-1.1c-0.1-0.1,0-0.1,0.1-0.2c0.1-0.1,0.3-0.2,0.4-0.3
		c0,0,0.1,0,0.1-0.1c0,0-0.1,0-0.1-0.1c-0.1,0-0.1,0-0.2,0c0,0-0.1,0-0.1-0.1c0-0.3-0.1-0.4-0.4-0.3c-0.2,0.1-0.5,0.2-0.7,0.3
		c-0.1,0,0,0.1,0,0.1c0.1,0.2,0.2,0.3,0.3,0.5c0.1,0.1,0.1,0.1,0,0.2c-0.3,0.1-0.5,0.3-0.7,0.4c0.1,0.1,0.1,0,0.2,0
		c0.1-0.1,0.3-0.2,0.4-0.2c0.3-0.2,0.3-0.2,0.5,0.1c-0.1,0-0.1,0-0.2,0c-0.1,0-0.2,0-0.1,0.1c0,0.2-0.1,0.3-0.2,0.3
		c-0.1,0-0.2,0.1-0.3,0.2c0.1,0.1,0.1,0.1,0.2,0c0,0,0.1-0.1,0.1-0.1c0.1,0,0.2,0.4,0.2,0.5C28,35.7,28,35.8,27.9,36
		c-0.1-0.4-0.5-0.6-0.5-1c0,0,0,0,0,0c-0.1,0-0.2,0-0.4,0c-0.1,0-0.1,0.1-0.1,0.2c0,0.1-0.1,0.1-0.1,0.1c-0.1,0-0.1,0-0.2,0.1
		c0.1,0.1,0.2,0,0.3-0.1c0,0,0.1-0.1,0.1,0c0.2,0.4,0.5,0.7,0.6,1.1c0.1,0.2,0.2,0.3,0.3,0.4c0.1,0.1,0.2,0,0.2-0.1
		c0-0.3,0-0.6,0.1-1c0,0,0,0,0,0c0,0.1,0.1,0.1,0.1,0.2c0.1,0.1,0,0.1,0,0.2c-0.2,0.2-0.2,0.2,0.1,0.3c0,0,0.1,0,0.1,0.1
		c0.1,0.1,0.2,0,0.2-0.1c0.1-0.3,0.2-0.5,0.3-0.8c0-0.1,0.1-0.1,0.2,0c0.1,0.1,0.2,0.1,0.3,0.2c0.2,0.2,0.5,0.2,0.8,0.1
		C30.4,35.7,30.4,35.6,30.3,35.5z M28.2,33.4c0.2,0,0.2,0.3,0.5,0.2c0,0.1,0,0.2,0,0.2c0,0.1-0.1,0.1-0.2,0.1
		c-0.1,0-0.1-0.1-0.1-0.1C28.3,33.7,28.2,33.6,28.2,33.4z M28.7,35.6c-0.1-0.2-0.2-0.4-0.4-0.6c-0.1-0.1,0-0.1,0.1-0.2
		c0.1,0,0.1-0.1,0.2,0c0,0.1,0.1,0.1,0.2,0.2C29,35.3,29,35.3,28.7,35.6z M32.9,32.8c-0.1,0-0.2-0.1-0.3-0.2c0,0-0.1-0.1-0.1-0.1
		c0,0,0,0.1,0,0.1c0,0.1,0.1,0.2,0.1,0.3c0,0.1,0,0.2-0.1,0.3c-0.1,0.1-0.2,0-0.2-0.1c-0.1-0.1-0.2-0.3-0.4-0.4
		c-0.1-0.1-0.1-0.2,0-0.2c0,0,0.1-0.1,0.1-0.1c0.1-0.1,0.2-0.1,0.2-0.2c0-0.1-0.2,0-0.3-0.1c-0.2,0-0.2,0.1-0.2,0.2
		c0,0.1,0,0.2-0.1,0.3c-0.2,0.2-0.5,0.4-0.7,0.6c-0.1,0.1-0.2,0.1-0.3,0.1c-0.1-0.1-0.3-0.1-0.4,0c-0.1,0-0.1,0-0.1-0.1
		c0-0.2-0.1-0.4-0.1-0.6c0-0.3-0.1-0.3-0.4-0.3c-0.1,0-0.2,0-0.1,0.2c0,0.2-0.1,0.2-0.2,0.3c-0.1,0-0.2,0-0.3,0.1
		c0.2,0.2,0.3,0.3,0.5,0.5c0.5,0.6,1,1.1,1.5,1.7c0.1,0.1,0.1,0.1,0.2,0.1c0.2-0.1,0.2-0.3,0.1-0.4c-0.2-0.2-0.4-0.4-0.5-0.6
		c0.1,0,0.1,0,0.2,0c0.1,0.1,0.2,0,0.3-0.1c0.1-0.2,0.1-0.4-0.1-0.5c-0.1-0.1,0-0.2,0.1-0.2c0.1-0.1,0.1,0,0.1,0
		c0.4,0.4,0.5,0.8,0.2,1.3c0,0-0.1,0.1,0,0.1c0,0,0.1,0,0.1-0.1c0.5-0.5,0.5-1,0.1-1.6c0,0-0.1-0.1-0.1-0.1c0,0-0.1-0.1,0-0.2
		c0.2,0.3,0.5,0.5,0.7,0.8c0.1,0.1,0.2,0.2,0.4,0.1c0.2-0.1,0.4-0.3,0.6-0.5C33.2,33,33.1,32.8,32.9,32.8z M30.5,34
		c-0.1,0-0.1,0-0.1-0.1c-0.3-0.3-0.6-0.6-0.9-1c0,0-0.1-0.1,0-0.2c0.1-0.1,0.1,0,0.2,0.1c0.1,0.1,0.1,0.1,0.2,0.2
		c0.1,0.2,0.3,0.4,0.5,0.4c0.2,0,0.3,0.2,0.3,0.3C30.6,33.9,30.6,33.9,30.5,34z M25.8,36.3c0.1,0,0.3-0.1,0.4-0.1
		c0.1,0,0.2,0,0.2-0.1c0-0.1-0.1-0.1-0.2-0.2c-0.2-0.1-0.2-0.1-0.3,0.1c0,0.1,0,0.1-0.1,0.2c-0.2,0.1-0.4,0.1-0.7,0.2
		c0.1-0.4,0.3-0.6,0.7-0.7c0.1,0,0.3-0.1,0.4-0.1c0.1,0,0.2,0,0.2-0.1c0-0.1-0.1-0.1-0.1-0.1c0,0,0,0-0.1,0
		c-0.3-0.1-0.3-0.1-0.4,0.1c-0.1,0.2-0.2,0.2-0.3,0.2c0.1-0.1,0.1-0.3,0.2-0.4c0.1-0.1,0.1-0.2,0.3-0.3c0.1,0,0-0.1,0-0.1
		c-0.2-0.1-0.3-0.2-0.5-0.2c-0.2,0-0.1,0.2-0.2,0.3c0,0,0,0,0,0.1c0,0.1-0.1,0.1-0.2,0.1c-0.1-0.1-0.2-0.1-0.2,0.1
		c0,0,0,0.1-0.1,0.2c-0.1-0.1-0.1-0.2-0.1-0.3c0.1-0.3-0.1-0.2-0.2-0.2c-0.1,0-0.1,0-0.2,0c-0.1,0-0.1,0.1-0.1,0.2
		c0,0.1,0.1,0.2,0.1,0.3c0,0.1,0,0.2-0.1,0.2c-0.2,0.1-0.4,0.1-0.6,0.2c0.1,0.1,0.1,0.1,0.2,0c0.1,0,0.2-0.1,0.3-0.1
		c0.3-0.1,0.3-0.1,0.4,0.2c0,0.1,0,0.2-0.1,0.2c-0.3,0.1-0.6,0.2-0.9,0.3c0.1,0.1,0.1,0.1,0.2,0c0.2-0.1,0.4-0.1,0.6-0.2
		c0.2-0.1,0.4-0.1,0.6-0.2c-0.2,0.5-0.5,0.9-0.8,1.2c-0.1,0.1-0.1,0.1-0.2,0.2c0,0-0.1,0.1,0,0.1c0,0.1,0.1,0,0.1,0
		c0,0,0.1,0,0.1-0.1c0.3-0.3,0.6-0.6,0.9-0.9c0,0,0-0.1,0.1-0.1c0,0.1,0,0.2-0.1,0.3c0,0,0,0.1,0,0.1c0.1,0.1,0.2,0.1,0.3,0.1
		c0.1,0,0.2-0.1,0.2-0.2c0.1-0.2,0.3-0.2,0.4-0.2c0,0,0,0,0.1,0c0.1,0.2,0,0.6-0.3,0.6c-0.2,0.1-0.3,0.1-0.5,0.1c0,0-0.1,0-0.1,0.1
		c0,0.1,0.1,0.1,0.1,0c0.2,0,0.3,0.1,0.3,0.2c0,0,0.1,0.1,0.1,0.1c0.4,0,0.8-0.4,0.8-0.8c0-0.2-0.1-0.3,0-0.5c0.1-0.2,0-0.2-0.1-0.2
		c-0.1,0-0.3-0.2-0.3,0c-0.1,0.3-0.3,0.2-0.5,0.3C25.5,36.4,25.5,36.4,25.8,36.3z M25,35.9c-0.2-0.3-0.2-0.4,0.2-0.5
		C25.1,35.6,25.1,35.8,25,35.9z M16.6,35.8c-0.1-0.2-0.2-0.2-0.3-0.1c-0.1,0.1-0.2,0.2-0.3,0.1c-0.2-0.1-0.4-0.1-0.7-0.2
		c0.2,0,0.3-0.1,0.4-0.2c0-0.2,0-0.3-0.1-0.4c-0.1-0.1-0.2-0.2-0.4-0.2c0,0-0.1,0-0.1,0c0,0,0,0.1,0,0.1c0.1,0.1,0.1,0.3,0,0.4
		c0,0.1,0,0.2,0,0.2c0,0,0,0,0,0c0,0-0.1,0-0.1,0c-0.4-0.1-0.8-0.3-1.2-0.4c0,0.1,0.1,0.1,0.1,0.2c0.3,0.1,0.6,0.2,0.9,0.3
		c0.2,0.1,0,0.2,0,0.3c0,0.1,0,0.2-0.2,0.1c-0.2-0.1-0.4-0.2-0.6-0.4c0,0-0.1-0.2-0.2,0c-0.2,0.5-0.3,1.1-0.5,1.6c0,0.1,0,0.1,0,0.2
		c0.2,0.1,0.4,0,0.4-0.2c0.1-0.4,0.2-0.7,0.4-1.1c0-0.1,0.1-0.1,0.2-0.1c0,0,0.1,0,0.2,0c0.1,0,0.2,0.1,0.1,0.2
		c-0.2,0.5-0.3,1-0.5,1.5c-0.1,0.2,0,0.3,0.2,0.3c0.1,0,0.2,0,0.3-0.2c0-0.1,0-0.2,0.1-0.3c0.1,0.1,0.2,0.2,0.2,0.3
		c0,0.1,0,0.1,0,0.1c0.2,0.2,0.6,0.1,0.7-0.2c0.1-0.3,0.2-0.7,0.3-1c0-0.1,0-0.2,0.1-0.2c0.1,0,0.1-0.1,0-0.2
		c-0.1-0.1-0.1-0.2-0.2-0.2c-0.1-0.1-0.2-0.1-0.2,0c-0.1,0.1-0.2,0.1-0.3,0c-0.1,0-0.2,0-0.1-0.2c0.1-0.1,0.1-0.3,0.3-0.2
		c0.2,0.1,0.5,0.2,0.8,0.2c0.1,0,0.3,0.2,0.3,0.1C16.8,36,16.6,35.9,16.6,35.8z M15.6,36.4c0.1,0,0.1,0.1,0,0.1
		c-0.1,0.3-0.2,0.6-0.3,0.9c0,0.1-0.1,0.2-0.2,0.1c-0.1-0.1-0.3-0.1-0.2-0.3c0.1-0.3,0.2-0.6,0.3-0.9c0,0,0-0.1,0.1-0.1
		C15.4,36.3,15.5,36.3,15.6,36.4z M30.1,31.9c0.1,0,0.2,0,0.2,0.1c0.1,0.1,0.1,0.1,0.2,0.1c-0.1,0.1-0.2,0.3-0.4,0.2
		c-0.1,0-0.1,0-0.1,0.1c0.1,0.1,0.1,0.2,0.1,0.3c0,0.1,0,0.2,0.1,0.3c0.1,0.1,0.2,0,0.3-0.1c0-0.1,0-0.2-0.1-0.3
		c-0.1-0.1-0.1-0.2,0-0.2c0.2-0.2,0.3-0.3,0.5-0.5c0,0,0.1-0.1,0.1,0c0,0.1,0.2,0.1,0,0.2c-0.1,0-0.1,0.1-0.1,0.2
		c0,0.1,0,0.2-0.1,0.3c-0.1,0.1-0.3,0.2-0.4,0.4c0.1,0.1,0.1,0,0.2,0c0.2-0.2,0.4-0.4,0.7-0.6c0.1-0.1,0.2-0.1,0.1-0.2
		c0-0.1-0.1,0-0.2,0c0,0,0,0,0,0c0-0.2,0.1-0.3,0.2-0.4c0.1,0,0.1-0.1,0.1-0.2c0-0.1-0.1-0.1-0.1-0.1c-0.1,0-0.3,0-0.4,0
		c-0.1,0-0.1,0-0.1,0.1c0,0.2-0.1,0.3-0.3,0.4c0-0.2-0.1-0.3-0.2-0.3c-0.1-0.1-0.5,0.1-0.5,0.2C30,31.8,30,31.9,30.1,31.9z
		 M26.4,34.4c0.1,0,0.2,0.1,0.3,0.2c0.1,0.1,0.2,0.1,0.3,0.1c0.1-0.1,0.2-0.2,0.1-0.3c-0.1-0.1-0.2-0.2-0.3-0.2
		c-0.1,0-0.3,0-0.4,0.1C26.3,34.4,26.3,34.4,26.4,34.4z"></path><path fill="#0C0E0E" d="M26.1,3.6c-0.2,0-0.3,0-0.4,0.1c-0.2-0.4-0.4-0.5-0.9-0.3c0.1-0.2,0-0.2-0.1-0.3c-0.2,0-0.2,0.1-0.2,0.2
		c-0.1,0.4-0.2,0.7-0.4,1.1c-0.1,0.2,0,0.2,0.1,0.2c0.1,0,0.2,0.1,0.2-0.1c0.1-0.2,0.1-0.4,0.2-0.7c0.1-0.2,0.3-0.3,0.4-0.2
		c0.2,0.1,0.2,0.2,0.1,0.4C25.1,4.2,25,4.4,25,4.7c-0.1,0.2,0,0.2,0.1,0.2c0.1,0,0.2,0.1,0.2-0.1c0.1-0.2,0.1-0.4,0.2-0.7
		c0.1-0.2,0.3-0.3,0.4-0.3c0.2,0.1,0.2,0.2,0.1,0.4C26,4.5,25.9,4.7,25.8,5c-0.1,0.1,0,0.2,0.1,0.2c0.1,0,0.2,0.1,0.2-0.1
		c0.1-0.3,0.2-0.6,0.3-1C26.6,3.9,26.4,3.6,26.1,3.6z M4.5,15.7c-0.2,0-0.3,0.1-0.4,0.3C4,16.1,4,16.3,3.9,16.4
		c0,0.1-0.1,0.2-0.2,0.1c-0.1-0.1,0-0.1,0-0.2c0.2-0.4,0-0.8-0.5-0.8c0-0.1,0-0.2-0.2-0.2c-0.2,0-0.1,0.1-0.2,0.2
		c-0.1,0.2-0.1,0.3-0.1,0.5c-0.1,0.5,0.2,0.8,0.6,0.7c0.1,0,0.1,0,0.1,0.1c0.1,0.1,0.2,0.2,0.4,0.1c0.1,0,0.1,0,0.2,0
		c0.2,0.3,0.5,0.2,0.6,0c0.1-0.2,0.2-0.5,0.2-0.8C4.9,15.9,4.7,15.7,4.5,15.7z M3.3,16.4c-0.1,0-0.3-0.1-0.3-0.2
		c0-0.1,0.1-0.2,0.2-0.2c0.1,0,0.2,0.1,0.2,0.2C3.5,16.3,3.5,16.4,3.3,16.4z M4.6,16.3c0,0.1,0,0.2-0.1,0.3c0,0.1-0.1,0.1-0.2,0.1
		c-0.1,0-0.2-0.1-0.1-0.2c0-0.1,0-0.1,0.1-0.2c0-0.1,0.1-0.2,0.2-0.2C4.6,16.1,4.6,16.2,4.6,16.3z M7,10.7c-0.2-0.1-0.3,0-0.5,0.1
		c-0.1,0.1-0.2,0.3-0.3,0.4c0,0.1-0.1,0.1-0.2,0c-0.1-0.1,0-0.1,0.1-0.2c0.3-0.3,0.3-0.8-0.1-0.9c-0.1,0,0-0.1,0-0.1
		c0-0.1,0-0.1-0.1-0.2c-0.1,0-0.1-0.1-0.2,0c-0.1,0.2-0.3,0.4-0.4,0.6c-0.2,0.3,0,0.7,0.3,0.8c0.1,0,0.2,0,0.3,0.2
		c0,0.1,0.1,0.2,0.2,0.2c0.2,0,0.2,0.1,0.2,0.2C6.3,12,6.5,12,6.7,11.9c0.3-0.2,0.5-0.5,0.5-0.9C7.3,10.9,7.2,10.7,7,10.7z
		 M5.7,10.9c-0.1,0-0.2-0.1-0.3-0.2c0-0.1,0.1-0.2,0.2-0.2c0.1,0,0.3,0.1,0.3,0.2C6,10.8,5.9,10.9,5.7,10.9z M6.7,11.6
		c-0.1,0-0.1,0-0.2,0c-0.1-0.1-0.1-0.1,0-0.2c0.1-0.1,0.1-0.2,0.2-0.2c0,0,0.1-0.1,0.2-0.1c0.1,0,0.1,0.1,0.1,0.2
		C6.9,11.4,6.8,11.5,6.7,11.6z M36.1,11.6c-0.1-0.1-0.1-0.3-0.3-0.3c-0.1,0-0.2,0-0.2,0c-0.5,0.1-1.1,0.2-1.6,0.3
		c-0.1,0-0.2,0-0.2,0.1c0,0.1,0.2,0.3,0.3,0.3c0.3-0.1,0.3-0.1,0.5,0.2c0,0,0,0.1,0.1,0.1c0.1,0.2,0.1,0.3,0,0.4
		c-0.2,0.1-0.1,0.3,0,0.4c0.1,0.1,0.1,0.1,0.2,0c0.4-0.5,0.8-0.9,1.3-1.4C36.2,11.8,36.2,11.7,36.1,11.6z M35.2,12.3
		c-0.1,0.1-0.1,0-0.1,0c-0.1-0.1-0.1-0.3-0.2-0.4c0.3-0.1,0.6-0.1,0.9-0.2C35.5,11.9,35.3,12.1,35.2,12.3z M9.5,7.7
		C9,7.3,8.6,6.8,8.2,6.4c-0.1-0.1-0.2,0-0.3,0c-0.1,0.1-0.1,0.1,0,0.2C8,6.8,8.2,6.9,8.3,7.1C7.9,7.2,7.7,7.4,7.7,7.7
		c0,0.4,0.4,0.8,0.8,0.9c0.2,0,0.3,0,0.5-0.1C9.1,8.4,9.2,8.2,9.2,8C9.3,8.2,9.4,8,9.5,8C9.6,7.9,9.5,7.8,9.5,7.7z M8.8,8.2
		c-0.1,0.1-0.2,0-0.3-0.1C8.3,8.1,8.3,8,8.2,7.9c-0.1-0.1-0.1-0.2,0-0.4c0.1-0.1,0.2-0.1,0.4-0.1c0.1,0,0.4,0.3,0.4,0.5
		C8.9,8,8.9,8.1,8.8,8.2z M5.4,14.3c-0.5-0.2-1.1-0.4-1.6-0.6c-0.1,0-0.2-0.1-0.2,0c-0.1,0.1-0.1,0.2,0.1,0.3c0,0-0.1,0-0.1,0.1
		c-0.4,0.2-0.4,0.7,0,1c0.2,0.2,0.5,0.3,0.8,0.3c0.3,0,0.6-0.3,0.5-0.6c0-0.1-0.1-0.1,0-0.2c0.2,0.1,0.3,0.1,0.5,0.2
		c0.2,0.1,0.2,0,0.2-0.1C5.5,14.5,5.5,14.4,5.4,14.3z M4.1,15c-0.1,0-0.2-0.1-0.4-0.1c-0.1-0.1-0.2-0.1-0.2-0.3
		c0-0.2,0.1-0.2,0.3-0.3c0.2-0.1,0.5,0.1,0.6,0.3C4.5,14.8,4.4,15,4.1,15z M3.9,21.8c0-0.1,0-0.2-0.2-0.2c-0.3,0-0.5,0-0.8,0
		c-0.2,0-0.3-0.1-0.3-0.3c0-0.2,0.1-0.2,0.3-0.2c0.3,0,0.5,0,0.8,0c0.1,0,0.1-0.1,0.1-0.2c0-0.1,0-0.2-0.1-0.2c-0.4,0-0.7,0-1.1,0.1
		c-0.3,0.1-0.4,0.4-0.3,0.7c0,0.1,0.1,0.2,0.2,0.3c-0.2,0-0.4,0-0.6,0c-0.1,0-0.2,0-0.2,0.2c0,0.2,0.1,0.2,0.2,0.2
		C2.5,22.1,3.2,22,3.8,22C3.9,22,3.9,21.9,3.9,21.8z M35.8,16.4c0,0.1,0,0.2,0.2,0.2c0.2-0.1,0.5-0.1,0.7-0.1c0.2,0,0.4,0.1,0.4,0.2
		c0,0.2-0.1,0.3-0.3,0.3C36.5,17,36.3,17,36,17.1c-0.2,0-0.1,0.2-0.1,0.2c0,0.1,0,0.2,0.2,0.2c0.3-0.1,0.7-0.1,1-0.2
		c0.4-0.1,0.5-0.5,0.2-0.8c0,0-0.1-0.1-0.2-0.1c0.3-0.1,0.5-0.1,0.7-0.2c0.1,0,0.1-0.1,0.1-0.2c0-0.1,0-0.2-0.2-0.2
		c-0.6,0.1-1.3,0.3-1.9,0.4C35.7,16.2,35.7,16.3,35.8,16.4z M20.2,2.3c0.2,0,0.3,0,0.5,0c0.1,0,0.1-0.1,0.1-0.2c0-0.1,0-0.2-0.1-0.2
		c-0.3,0-0.6,0-0.9,0c-0.1,0-0.2,0.1-0.2,0.2c0,0.6,0,1.1,0,1.7c0,0.2,0,0.2,0.2,0.2c0.1,0,0.3,0,0.4,0v0c0.2,0,0.3,0,0.5,0
		c0.1,0,0.1-0.1,0.1-0.2c0-0.1,0-0.2-0.1-0.2c-0.2,0-0.3,0-0.5,0c-0.1,0-0.2,0-0.2-0.1c0-0.4,0-0.4,0.4-0.4c0,0,0.1,0,0.1,0
		c0.1,0,0.2,0,0.2-0.2c0-0.1,0-0.2-0.2-0.2c-0.1,0-0.1,0-0.2,0c-0.4,0-0.3,0-0.3-0.4C20,2.4,20,2.3,20.2,2.3z M8.3,8.8
		c-0.1-0.1-0.1-0.1-0.2,0C8,9,7.8,9.1,7.7,9.2c-0.1,0.1-0.1,0.1-0.2,0C7.2,9,7.2,9,7.5,8.6c0,0,0,0,0.1-0.1c0.1-0.1,0.1-0.2,0-0.2
		c-0.1-0.1-0.2-0.1-0.2,0C7.2,8.5,7.1,8.5,7.1,8.6C7,8.7,6.9,8.7,6.8,8.6c-0.2-0.2-0.2-0.2,0-0.5C6.9,8.1,6.9,8,7,7.9
		c0,0,0.1-0.1,0.1-0.2C7,7.7,7,7.7,6.9,7.6c0,0-0.1,0-0.1,0.1C6.6,7.9,6.4,8.2,6.2,8.4c-0.1,0.1-0.1,0.2,0,0.2C6.6,9,7,9.4,7.5,9.8
		c0.1,0.1,0.2,0.1,0.3,0c0.2-0.2,0.4-0.4,0.6-0.7C8.4,9,8.4,8.9,8.3,8.8z M3.5,22.3c-0.1,0.1,0,0.1,0.1,0.2c0.3,0.4,0.1,0.7-0.3,0.9
		c-0.1,0-0.3,0.1-0.4,0.1c-0.4,0-0.7-0.3-0.5-0.7c0-0.1,0.1-0.2,0-0.2c-0.1,0-0.3,0-0.3,0.1c0,0.1,0,0.1,0,0.2
		c-0.1,0.6,0.3,1.1,1,1.1c0.2,0,0.4,0,0.6-0.1c0.5-0.2,0.7-1,0.3-1.4C3.8,22.2,3.6,22.2,3.5,22.3z M3.1,20.3c0.5,0,0.8-0.3,0.8-0.7
		c0-0.5-0.3-0.8-0.8-0.8c-0.5,0-0.8,0.3-0.8,0.7C2.3,20,2.6,20.3,3.1,20.3z M2.6,19.5C2.6,19.5,2.6,19.5,2.6,19.5
		c0.1-0.2,0.2-0.3,0.5-0.3c0.3,0,0.4,0.1,0.5,0.3c0,0.3-0.1,0.4-0.4,0.4C2.8,19.9,2.6,19.8,2.6,19.5z M36.9,19.2
		c0.5,0,0.8-0.3,0.8-0.7c0-0.5-0.3-0.8-0.8-0.8c-0.5,0-0.8,0.3-0.8,0.7C36.1,18.9,36.4,19.2,36.9,19.2z M36.8,18.1
		c0.1,0,0.2,0,0.3,0c0.2,0,0.3,0.1,0.3,0.3c0,0.2-0.1,0.3-0.2,0.3c-0.1,0-0.2,0-0.3,0c-0.3,0-0.4-0.1-0.4-0.3
		C36.4,18.3,36.5,18.2,36.8,18.1z M16,3c-0.5,0-0.8,0.3-0.8,0.7c0,0.5,0.3,0.9,0.7,0.9c0.5,0,0.8-0.3,0.8-0.7C16.7,3.3,16.4,3,16,3z
		 M16.1,4.3c-0.2,0-0.3-0.1-0.4-0.2c-0.1-0.1-0.1-0.3-0.1-0.5c0-0.2,0.1-0.2,0.3-0.3c0.1,0,0.2,0,0.3,0.1c0.1,0.1,0.1,0.3,0.1,0.5
		C16.4,4.1,16.2,4.2,16.1,4.3z M33.2,8.6c0-0.4-0.4-0.8-0.8-0.8c-0.4,0-0.9,0.5-0.9,0.8c0,0.4,0.4,0.8,0.8,0.8
		C32.7,9.4,33.2,9,33.2,8.6z M32.2,9c-0.2,0-0.4-0.3-0.3-0.5c0.1-0.2,0.2-0.3,0.4-0.4c0.2-0.1,0.4,0.1,0.4,0.3
		C32.8,8.7,32.4,9,32.2,9z M37.4,22.6c-0.3,0.1-0.6,0.1-0.9,0.2c-0.3,0.1-0.6,0.1-0.8-0.1c0,0-0.1-0.1-0.1,0c-0.1,0.1-0.1,0.4,0,0.4
		c0.6,0.3,1.1,0.6,1.7,0.9c0,0,0.1,0.1,0.2,0c0.1-0.1,0.1-0.3-0.1-0.4c-0.3-0.1-0.5-0.3-0.8-0.4c0.1,0,0.1,0,0.1,0
		c0.3,0,0.6-0.1,0.9-0.2c0.1,0,0.2-0.2,0.2-0.3C37.5,22.5,37.5,22.6,37.4,22.6z M10.1,5.7c-0.1-0.1-0.2-0.1-0.3,0
		C9.8,5.8,9.7,5.8,9.8,6c0.1,0.2,0.3,0.4,0.4,0.6c0.1,0.2,0.1,0.4,0,0.5c-0.1,0.1-0.3,0.1-0.4-0.1C9.6,6.7,9.5,6.5,9.3,6.3
		c-0.1-0.1-0.2-0.1-0.2,0C9,6.4,8.9,6.4,9,6.5c0.2,0.3,0.4,0.5,0.6,0.8c0.2,0.2,0.4,0.2,0.7,0.1c0.2-0.1,0.2-0.3,0.3-0.5
		c0.1,0.2,0.2,0.1,0.3,0c0.1-0.1,0-0.2,0-0.3C10.6,6.4,10.3,6.1,10.1,5.7z M4,17.2c-0.3,0-0.6-0.1-0.9-0.1c-0.4,0-0.6,0.2-0.5,0.6
		c0,0.1,0.1,0.2,0.1,0.3c-0.2-0.1-0.2,0.1-0.2,0.2c0,0.1,0,0.1,0.1,0.2c0.4,0.1,0.8,0.1,1.2,0.2c0.2,0,0.2-0.1,0.2-0.2
		c0-0.1,0-0.2-0.2-0.2c-0.2,0-0.4-0.1-0.6-0.1c-0.2,0-0.3-0.2-0.3-0.4c0-0.2,0.2-0.2,0.4-0.2c0.2,0,0.5,0.1,0.7,0.1
		c0.1,0,0.2-0.1,0.2-0.2C4.1,17.4,4.2,17.2,4,17.2z M18.3,3c-0.1-0.3-0.3-0.4-0.6-0.3c-0.1,0-0.2,0.1-0.4,0.3c0-0.2-0.1-0.2-0.2-0.2
		C17,2.8,17,2.9,17,3c0.1,0.4,0.1,0.8,0.2,1.2c0,0.1,0.1,0.1,0.2,0.1c0.1,0,0.2,0,0.2-0.2c0-0.2-0.1-0.4-0.1-0.7
		c0-0.2,0.1-0.4,0.2-0.4C17.9,3,18,3.1,18,3.4c0,0.2,0.1,0.5,0.1,0.7c0,0.1,0.1,0.1,0.2,0.1c0.1,0,0.3,0,0.2-0.1
		C18.4,3.7,18.4,3.3,18.3,3z M12.9,4.4c-0.1-0.1-0.2-0.2-0.3-0.2c-0.3,0-0.6,0.2-0.8,0.5c-0.1,0.1,0,0.2,0.1,0.3C12,5,12,4.9,12,4.9
		c0.1-0.1,0.2-0.2,0.4-0.3c0.1,0,0.2,0,0.3,0.2c0.1,0.1-0.1,0.1-0.1,0.1C12.4,5,12.3,5,12.2,5.2c-0.2,0.2-0.2,0.3,0,0.5
		c0.1,0.2,0.3,0.2,0.5,0.2c0.2,0,0.3-0.1,0.4-0.3c0,0,0-0.1,0.1,0c0.1,0.1,0.2,0,0.2-0.1c0.1,0,0.1-0.1,0-0.1
		C13.3,5,13.1,4.7,12.9,4.4z M12.6,5.6c-0.1,0-0.2-0.1-0.2-0.2c0-0.1,0.2-0.3,0.3-0.3c0.1,0,0.1,0.1,0.1,0.2
		C12.9,5.4,12.7,5.6,12.6,5.6z M34.1,9.5c-0.1-0.1-0.2-0.1-0.3-0.1c0.1-0.1,0.1-0.2,0-0.3c-0.1-0.1-0.2,0-0.3,0
		c-0.3,0.2-0.6,0.5-0.9,0.7c-0.1,0.1-0.1,0.2,0,0.3c0.1,0.1,0.1,0.2,0.3,0.1c0.2-0.1,0.4-0.3,0.5-0.4c0.2-0.1,0.4-0.1,0.5,0
		c0.1,0.1,0.1,0.3-0.1,0.4c-0.2,0.2-0.4,0.3-0.6,0.4c-0.1,0.1,0,0.2,0,0.2c0.1,0.1,0.1,0.2,0.2,0.1c0.3-0.2,0.6-0.4,0.8-0.6
		C34.4,10,34.4,9.7,34.1,9.5z M30.3,5.8c-0.2-0.3-0.4-0.4-0.8-0.5c-0.1,0-0.2,0.1-0.2,0.2c0,0.1,0.1,0.1,0.1,0.1
		c0.2,0,0.3,0.1,0.4,0.2C30,6,30,6.1,29.9,6.2c-0.1,0.1-0.1,0-0.2,0C29.5,6,29.4,6,29.2,5.9c-0.3,0-0.4,0.1-0.5,0.3
		c-0.1,0.2,0,0.3,0.1,0.5c0.1,0.1,0.3,0.2,0.5,0.2c0.1,0,0.1,0,0.1,0.1c0,0.1,0.1,0.1,0.2,0.2c0.1,0,0.1,0,0.1,0
		c0.2-0.3,0.4-0.6,0.6-0.9C30.4,6.1,30.4,6,30.3,5.8z M29.4,6.7c-0.1,0-0.3-0.1-0.3-0.2c0-0.1,0.1-0.2,0.2-0.2
		c0.1,0,0.3,0.1,0.3,0.2C29.7,6.6,29.5,6.7,29.4,6.7z M36.6,14.3c0.2-0.1,0.1-0.2,0.1-0.3c0-0.1-0.1-0.2-0.2-0.1
		c-0.2,0.1-0.4,0.2-0.7,0.3c-0.2,0.1-0.4,0-0.4-0.1c-0.1-0.1,0-0.3,0.2-0.4c0.2-0.1,0.5-0.2,0.7-0.3c0.1,0,0.1-0.1,0.1-0.2
		c0-0.1,0-0.2-0.2-0.2c-0.3,0.1-0.6,0.2-1,0.4c-0.3,0.2-0.3,0.5-0.2,0.7c0.1,0.1,0.2,0.2,0.4,0.3c-0.2,0.1-0.2,0.2-0.1,0.3
		c0.1,0.2,0.2,0.1,0.3,0C35.8,14.6,36.2,14.4,36.6,14.3z M6,11.9c-0.3-0.2-0.6-0.4-0.9-0.5c-0.3-0.1-0.6,0.1-0.7,0.5
		c0,0.1,0,0.2,0,0.3c0,0,0,0,0,0c0,0,0,0,0,0c-0.1-0.1-0.2,0-0.2,0.1c-0.1,0.1,0,0.2,0.1,0.2c0.4,0.2,0.7,0.4,1.1,0.6
		c0.1,0.1,0.2,0,0.2-0.1c0-0.1,0.1-0.2,0-0.3c-0.2-0.1-0.4-0.2-0.6-0.3c-0.2-0.1-0.2-0.3-0.2-0.4c0.1-0.1,0.2-0.2,0.4-0.1
		c0.2,0.1,0.4,0.2,0.7,0.4c0.1,0.1,0.2,0,0.2-0.1C6,12.1,6.1,12,6,11.9z M28.9,4.9c-0.2-0.3-0.4-0.3-0.8-0.2c0.2-0.2,0-0.2-0.1-0.3
		c-0.1-0.1-0.2,0.1-0.2,0.1c-0.2,0.3-0.4,0.7-0.6,1c-0.1,0.2,0,0.2,0.1,0.2c0.1,0.1,0.2,0.1,0.2,0c0.1-0.2,0.2-0.4,0.3-0.6
		C28,5,28.2,4.9,28.4,5c0.1,0.1,0.2,0.2,0.1,0.4c-0.1,0.2-0.2,0.4-0.4,0.6c-0.1,0.2,0,0.2,0.1,0.2c0.1,0.1,0.2,0.1,0.2,0
		c0.1-0.2,0.2-0.4,0.3-0.6C28.9,5.4,29,5.2,28.9,4.9z M23.7,2.9c-0.3-0.2-0.5-0.2-0.8-0.1c-0.1,0-0.2,0.1-0.1,0.3c0,0.1,0.1,0,0.2,0
		c0.1,0,0.3,0,0.4,0c0.1,0,0.2,0.1,0.2,0.3c0,0.2-0.1,0-0.2,0c-0.1,0-0.3,0-0.4,0c-0.2,0-0.4,0.2-0.4,0.4c0,0.2,0.1,0.4,0.3,0.5
		c0.2,0.1,0.4,0.1,0.6,0c0,0.2,0.1,0.2,0.2,0.2c0.1,0,0.1,0,0.1-0.1c0.1-0.4,0.2-0.7,0.2-1.1C23.9,3.2,23.8,3,23.7,2.9z M23.1,4.1
		c-0.1,0-0.2-0.1-0.2-0.2c0-0.2,0.1-0.2,0.3-0.2c0.1,0,0.3-0.1,0.3,0.1C23.4,4,23.3,4.1,23.1,4.1z M22.1,2.7c-0.1,0-0.1,0.1-0.1,0.1
		c-0.1,0.1-0.2,0.2-0.2,0.4c-0.1-0.1-0.1-0.2-0.1-0.3c0-0.2-0.2-0.2-0.4-0.2c-0.1,0-0.2,0-0.1,0.1c0.1,0.2,0.1,0.3,0.2,0.5
		c0.1,0.1,0,0.2,0,0.3C21.2,3.6,21.1,3.8,21,4c0,0-0.1,0.1,0,0.1c0.1,0.1,0.3,0,0.4-0.1c0.1-0.1,0.1-0.3,0.3-0.4
		c0.1,0.1,0.1,0.3,0.2,0.4c0,0.1,0,0.1,0.1,0.1c0.1,0,0.2,0.1,0.3,0c0.1-0.1,0-0.2-0.1-0.3c-0.2-0.4-0.2-0.7,0.1-1
		c0.1-0.1,0.2-0.1,0.1-0.2C22.4,2.6,22.2,2.7,22.1,2.7z M14.3,4.8c-0.1,0.1-0.2,0-0.3-0.1c-0.1-0.2-0.1-0.3-0.2-0.5
		C13.8,4.1,13.8,4,13.9,4C14,4,14.1,3.9,14,3.8c-0.1-0.1-0.1-0.1-0.3-0.1c-0.1,0.1-0.2,0.1-0.2-0.1c0-0.2-0.1-0.2-0.3-0.1
		c-0.2,0.1-0.2,0.2-0.1,0.3c0,0.1,0.1,0.1-0.1,0.2c-0.1,0-0.1,0.1,0,0.2c0,0.1,0.1,0.2,0.2,0.1c0.1-0.1,0.1,0,0.1,0.1
		c0.1,0.2,0.2,0.4,0.3,0.6c0.1,0.2,0.2,0.3,0.4,0.3c0.1,0,0.3-0.1,0.4-0.1c0.1-0.1,0-0.2,0-0.3C14.4,4.7,14.3,4.8,14.3,4.8z
		 M30.6,7.6c-0.1-0.1-0.1-0.2,0-0.3c0.1-0.1,0.2-0.3,0.3-0.4c0.1-0.1,0.1-0.1,0.2,0c0.1,0.1,0.2,0.1,0.3,0c0.1-0.1,0-0.2-0.1-0.3
		c-0.1-0.1-0.1-0.1,0-0.2c0-0.1,0.1-0.1,0.1-0.2C31.3,6,31.2,6,31,6.2c0,0-0.1,0.2-0.2,0.1c-0.1-0.1-0.2,0-0.2,0
		c-0.1,0.1-0.1,0.1,0,0.2c0.1,0.1,0,0.1,0,0.2c-0.1,0.2-0.3,0.4-0.4,0.5c-0.1,0.1-0.1,0.2-0.1,0.3c0,0.2,0.2,0.5,0.4,0.5
		c0.1,0,0.2-0.1,0.2-0.2C30.8,7.6,30.7,7.6,30.6,7.6z M36.5,14.7c0.1,0.1,0,0.1-0.1,0.1c-0.2,0.1-0.4,0.1-0.7,0.2
		c-0.2,0.1-0.3,0.2-0.3,0.4c0,0.2,0,0.3,0.1,0.4c0.1,0.1,0.2,0.1,0.3,0c0.1,0,0-0.1,0-0.2c-0.1-0.1,0-0.2,0.1-0.3
		c0.2-0.1,0.3-0.1,0.5-0.2c0.1-0.1,0.2,0,0.2,0.1c0,0.2,0.1,0.2,0.2,0.1c0.1,0,0.1-0.1,0.1-0.2c-0.1-0.1-0.1-0.2,0.1-0.2
		c0.1,0,0.2-0.1,0.1-0.2c-0.1-0.1-0.1-0.2-0.3-0.2c-0.1,0-0.2,0.1-0.2,0c0-0.1-0.1-0.1-0.2-0.1C36.6,14.6,36.5,14.6,36.5,14.7z
		 M37.9,21.6c-0.1,0-0.2,0-0.2-0.1c0-0.1-0.1-0.1-0.1-0.1c-0.1,0-0.2,0-0.2,0.1c0,0.1-0.1,0.1-0.1,0.1c-0.2,0-0.4,0-0.6-0.1
		c-0.4,0-0.6,0.3-0.5,0.6c0,0.1,0.2,0.1,0.3,0.1c0.1,0,0.1-0.1,0.1-0.1c0-0.2,0.1-0.2,0.2-0.2c0.2,0,0.3,0,0.5,0
		c0.1,0,0.2,0.1,0.2,0.2c0,0.1,0,0.2,0.1,0.2c0.1,0,0.2,0,0.2-0.2c0-0.2,0.1-0.2,0.2-0.2c0.2,0,0.2-0.1,0.2-0.2
		C38.1,21.7,38,21.6,37.9,21.6z M11.9,5.8c-0.1-0.1-0.1,0.1-0.1,0.1c-0.2,0.2-0.4,0.3-0.6,0.1c-0.1-0.1-0.1-0.2-0.2-0.2
		c-0.1-0.3,0-0.5,0.3-0.5c0.1,0,0.1,0,0.2,0c0-0.1,0-0.1-0.1-0.2c-0.1-0.1-0.1-0.1-0.2-0.1c-0.4,0.1-0.7,0.5-0.6,0.9
		c0.1,0.4,0.4,0.7,0.8,0.7c0.2,0,0.4-0.1,0.6-0.4C12.1,6,12,5.8,11.9,5.8z M37.8,20.3c0-0.2-0.1-0.3-0.3-0.4c0.3,0,0.2-0.1,0.2-0.2
		c0-0.2-0.1-0.1-0.2-0.1c-0.4,0-0.8,0-1.2,0c-0.1,0-0.2,0.1-0.2,0.2c0,0.1,0,0.2,0.2,0.2c0.2,0,0.4,0,0.7,0c0.2,0,0.4,0.2,0.4,0.3
		c0,0.1,0,0.2,0.1,0.2C37.6,20.4,37.8,20.5,37.8,20.3z M37.6,20.7c-0.2,0-0.4,0-0.7,0c0,0,0,0,0,0c-0.2,0-0.4,0-0.6,0
		c-0.2,0-0.2,0.1-0.2,0.2c0,0.1,0,0.2,0.2,0.2c0.4,0,0.8,0,1.2,0c0.2,0,0.2-0.1,0.2-0.2C37.7,20.8,37.8,20.7,37.6,20.7z M27.1,4
		c-0.1,0-0.1,0.1-0.1,0.1c-0.2,0.4-0.3,0.7-0.5,1.1c-0.1,0.2,0,0.2,0.1,0.2c0.1,0.1,0.2,0.1,0.2-0.1c0.1-0.3,0.3-0.7,0.5-1
		C27.5,4.2,27.4,4,27.1,4z M32,7.3c0-0.1-0.1-0.2-0.2-0.2c-0.1-0.1-0.1,0-0.2,0.1c-0.3,0.3-0.5,0.6-0.8,0.9c-0.1,0.1,0,0.2,0,0.3
		c0.1,0.1,0.2,0.1,0.3,0C31.4,8,31.7,7.7,32,7.3C32,7.3,32,7.3,32,7.3z M3.9,13.3c0.3,0.1,0.7,0.3,1,0.5c0.2,0.1,0.3,0,0.3-0.2
		c0-0.1,0-0.1-0.1-0.1c-0.4-0.2-0.7-0.3-1.1-0.5c-0.2-0.1-0.2,0-0.3,0.1C3.8,13.2,3.8,13.3,3.9,13.3z M14.7,3.5c0-0.1,0-0.1-0.1-0.1
		c-0.2,0-0.3,0.1-0.3,0.2c0.1,0.4,0.3,0.8,0.4,1.2C14.8,5,14.9,4.9,15,4.9c0.1,0,0.2,0,0.1-0.2C15,4.3,14.9,3.9,14.7,3.5z M27.5,3.9
		c0.1,0,0.2-0.1,0.2-0.2c0-0.2-0.2-0.2-0.3-0.2c-0.1,0-0.2,0.1-0.2,0.3C27.2,3.9,27.4,3.9,27.5,3.9z M38.1,20.7
		c-0.2,0-0.2,0.1-0.2,0.2c0,0.1,0.1,0.2,0.2,0.2c0.2,0,0.2-0.1,0.2-0.2C38.4,20.8,38.3,20.7,38.1,20.7z M14.3,3.2
		c0.1,0,0.3,0,0.3-0.2c0-0.1,0-0.2-0.2-0.2c-0.1,0-0.2,0-0.2,0.2C14.1,3.1,14.2,3.3,14.3,3.2z M3.5,13.1c0.2,0,0.2-0.2,0.2-0.3
		c0-0.1-0.1-0.2-0.2-0.2c-0.1,0-0.2,0.1-0.2,0.3C3.2,13.1,3.3,13.1,3.5,13.1z M32.2,7c0.1,0,0.2-0.1,0.2-0.2c0-0.1-0.1-0.2-0.3-0.2
		c-0.1,0-0.2,0.1-0.2,0.2C32,6.9,32.1,7,32.2,7z"></path><path fill="#231815" d="M20,34.4c-7.9,0-14.4-6.4-14.4-14.4S12.1,5.6,20,5.6S34.4,12.1,34.4,20S27.9,34.4,20,34.4z M20,5.9
		C12.2,5.9,5.9,12.2,5.9,20S12.2,34.1,20,34.1c7.8,0,14.1-6.3,14.1-14.1S27.8,5.9,20,5.9z"></path><g><path fill="#193169" d="M32.1,18.1c0,0.3,0,0.6,0,0.9c0,5.9-4.7,10.6-10.6,10.6c-5.9,0-10.6-4.7-10.6-10.6
			c0-5.9,4.7-10.6,10.6-10.6c1.6,0,3.1,0.4,4.5,1c-1.8-1-3.8-1.6-6-1.6C13.2,7.7,7.7,13.2,7.7,20c0,6.8,5.5,12.3,12.3,12.3
			S32.3,26.8,32.3,20C32.3,19.3,32.2,18.7,32.1,18.1z"></path></g><g><linearGradient id="SVGID_1" gradientUnits="userSpaceOnUse" x1="16.3034" y1="14.8738" x2="28.6583" y2="14.8738"><stop offset="0.2" style="stop-color: rgb(0, 145, 58);"></stop><stop offset="0.5" style="stop-color: rgb(197, 216, 54);"></stop><stop offset="0.8" style="stop-color: rgb(0, 145, 58);"></stop></linearGradient><path fill="url(#SVGID_1)" d="M28.6,10.5c0,0-0.7,1.3-2.2,1.7c-2.5,0.6-5.4,0.5-7.4,1.3c-3.3,1.3-2.7,5.8-2.7,5.8
			s0.3-2.1,3.4-2.8c1.6-0.3,4.9-0.3,6.4-1C29,14.3,28.6,10.5,28.6,10.5z"></path></g><g><linearGradient id="SVGID_2" gradientUnits="userSpaceOnUse" x1="16.3034" y1="18.8008" x2="28.6583" y2="18.8008"><stop offset="0.2" style="stop-color: rgb(242, 150, 0);"></stop><stop offset="0.5" style="stop-color: rgb(250, 237, 0);"></stop><stop offset="0.8" style="stop-color: rgb(242, 150, 0);"></stop></linearGradient><path fill="url(#SVGID_2)" d="M28.6,14.4c0,0-0.7,1.3-2.2,1.7
			c-2.5,0.6-5.4,0.5-7.4,1.3c-3.3,1.3-2.7,5.8-2.7,5.8s0.3-2.1,3.4-2.8c1.6-0.3,4.9-0.3,6.4-1C29,18.2,28.6,14.4,28.6,14.4z"></path></g><g><linearGradient id="SVGID_3" gradientUnits="userSpaceOnUse" x1="16.3034" y1="22.7279" x2="28.6583" y2="22.7279"><stop offset="0.2" style="stop-color: rgb(25, 49, 105);"></stop><stop offset="0.5" style="stop-color: rgb(22, 130, 194);"></stop><stop offset="0.8" style="stop-color: rgb(25, 49, 105);"></stop></linearGradient><path fill="url(#SVGID_3)" d="M28.6,18.4c0,0-0.7,1.3-2.2,1.7
			c-2.5,0.6-5.4,0.5-7.4,1.3c-3.3,1.3-2.7,5.8-2.7,5.8s0.3-2.1,3.4-2.8c1.6-0.3,4.9-0.3,6.4-1C29,22.1,28.6,18.4,28.6,18.4z"></path></g></g><g><path fill="#193169" d="M142.6,22.1c-1.3-0.7-2.6-1.3-3.9-2c-2.2-1.2-2.2-1.2-1.9-3.8c0-0.3,0.1-0.6,0.1-0.9c0-1.1,0.4-2,1.4-2.5
		c0.3-0.1,0.5-0.3,0.8-0.5c0.5-0.5,1.6-0.8,1-1.7c-0.5-0.9-1.4-0.2-2,0c-0.9,0.3-1.7,0.8-2.7,1.3c-0.1-1.4,0-2.7-0.7-3.8
		c-0.2-0.4-0.5-0.8-1.1-0.6c-0.6,0.1-0.6,0.6-0.7,1c-0.1,0.5,0.2,1-0.2,1.5c-2.1-2.8-2.9,0.8-4.6,0.9c0-1.3,0.8-1.8,1.7-2.1
		c1.8-0.7,1.8-1,0.4-2.4c-0.1-0.1-0.3-0.3-0.4-0.4c-1.2-1.1-1.9-0.9-2.7,0.5c-0.1,0.2-0.2,0.9-0.7,0.4c-0.5-0.5-0.9-0.4-1.3,0.1
		c-0.4,0.5,0,1.1,0.3,1.4c1,0.9,0.7,1.8,0.4,3c-0.4,1.4-1.4,1.7-2.5,2.2c-0.3,0.1-0.7,0.1-0.5-0.3c0.2-0.7-0.3-0.5-0.5-0.4
		c-0.5,0.2-1,0.3-1.4,0.6c-0.8,0.5-2,1-1.5,2.1c0.5,1.1,1.7,0.6,2.6,0.3c1.1-0.4,2.1-0.8,3.4-1.3c-0.6,1.1-1.4,1.4-2,2
		c-1.5,1.4-2.9,2.8-3.9,4.6c-0.3,0.5-0.4,1.1,0.2,1.5c0.6,0.4,1-0.1,1.3-0.5c1.4-1.5,2.7-3,4.1-4.5c0.4-0.5,0.8-1,1.5-1.2
		c0.1,0.7-0.3,1.4,0.2,2c0.6,0.8,0.2,1.4-0.4,2c-0.7,0.7-1.6,1.2-2.5,1.7c-0.7,0.4-1.1,1-0.3,1.5c0.8,0.5,1.2,1.3,1.8,2
		c1.3,1.6,3,1.3,3.9-0.5c0.3-0.6,0.5-1.3,0.7-2c0.2-0.6,0.4-0.8,1.1-0.7c1.4,0.4,2.6-0.2,3.6-1.1c0.9-0.8,1.7-0.8,2.6-0.3
		c0.8,0.4,1.6,0.9,2.4,1.4c0.8,0.5,1.6,0.9,2.5,1c0.4,0,1,0.3,1.2-0.4C143.4,22.5,143,22.3,142.6,22.1z M127.8,23.8
		c-0.2,0.6-0.5,1.4-1.3,1c-0.8-0.3-0.8-1.1-0.4-1.8c0.4-0.7,1-1.3,2.1-1.8C128,22.2,128,23,127.8,23.8z M128.9,17.3
		c-0.2-0.8,0.5-1.1,0.7-1.6c0.3-0.7,0.6-1.4-0.3-1.8c-0.7-0.3-0.5-0.6-0.2-1c1-1,2.2-1.7,3.8-2.3C132.6,13.7,130.4,15.3,128.9,17.3z
		 M131.1,21.4c-1.3-0.2-0.8-1.4-1.2-2.1c0.1-0.8,0.4-1.6,1.2-1.8c0.5-0.1,2.4,1.5,2.5,2C133.7,20.2,131.9,21.6,131.1,21.4z
		 M134.3,17.5c-0.5,0.2-2.1-1.3-2.1-1.8c0.1-1,0.9-1.1,1.7-1c0.6-0.2,1.2-0.3,1,0.7C134.8,16.1,135.3,17.1,134.3,17.5z M64.6,8.2
		c-0.4,0-0.7,0.2-1,0.2c-1.1,0.1-2.1,0.4-3.1-0.6c-0.6-0.6-1.2-0.2-1.6,0.6c-0.3,0.6-0.5,1.1-1.2,1.3c-3.1,0.6-5.9,2.2-8.9,3.2
		c-0.7,0.2-1.4,0.5-2.2,0.1c-0.9-0.4-1.5,0.1-1.6,1c-0.1,0.8,0.2,1.5,1.2,1.6c0.6,0.1,1.1-0.1,1.6-0.4c3-1.7,6.3-2.8,9.6-4
		c0.5-0.2,1.1-0.6,1.5,0.1c0.4,0.7-0.1,1.3-0.7,1.4c-1.5,0.4-2.8,1.3-4.5,1.3c-1.3,0-1.6,0.4-0.9,1.5c0.5,0.9,0.9,1.8,1.3,2.7
		c1,2.6,1.6,2.8,4.2,1.9c0.1,0,0.2,0.1,0.3,0.2c-0.3,0.6-1,0.9-1.5,1.2c-0.6,0.4-1.8,0.4-1.7,1.5c0.1,1,1.3,0.4,2.1,1
		c-0.9,0.6-1.7,1.2-2.5,1.8c-0.4,0.3-0.8,0.6-0.5,1.1c0.2,0.6,0.7,0.7,1.2,0.7c0.4,0,0.8-0.2,1.2-0.3c2.3-0.9,4.5-1.9,7.1-1.2
		c0.7,0.2,1.4-0.2,1.4-1c0-0.8-0.6-1-1.2-1c-1,0-2,0.1-3,0.1c-0.1-0.5,0.3-0.6,0.6-0.9c0.3-0.3,0.6-0.5,0.9-0.8
		c0.9-1.1,0.6-2.1-0.7-2.4c-0.4-0.1-1.2,0.4-1.2-0.5c0-0.7,0.5-1.1,1.1-1.3c0.6-0.2,1.4-0.4,1.6-1c0.4-1.3,1.2-2.4,2-3.6
		c0.6-0.9,0.4-1.7-0.8-1.8c-0.9-0.1-1.7-0.3-2.6-0.1c-0.5,0.1-1.1,0.1-1.2-0.6c-0.1-0.7,0.4-0.9,0.9-1.1c0.4-0.2,0.9,0,1.3,0.1
		c0.6,0.1,1.3,0.4,1.9,0.3c0.9-0.1,2.5,0.1,2.4-1.2C67.1,7.6,65.6,8.2,64.6,8.2z M56.8,15.7c-0.2,0.7,0.9,0.3,1.1,0.9
		c-0.7,0.3-0.4,1.8-1.4,1.7c-1.1-0.1-0.9-1.5-1.5-2.1c-0.2-0.2-0.3-0.7,0-0.8c1.2-0.6,2.3-1.3,3.7-1.3C58.2,14.9,57,14.7,56.8,15.7z
		 M61.6,13.2c0.4,0,1-0.1,1,0.6c0,0.5-0.2,1-0.8,1.3c-0.2-0.6-1-0.6-1.1-1.3C60.7,13.3,61.2,13.2,61.6,13.2z M164.9,7
		c-0.5-0.2-1,0-1.5,0.1c-1.8,0.4-3.7,0.7-5.6,1.1c0.8-2,0.5-2.6-1.5-3.3c-0.3-0.1-0.7-0.2-1-0.3c-0.4-0.1-1-0.2-1.2,0.3
		c-0.2,0.4,0.4,0.6,0.7,0.9c0.4,0.3,1.2,0.5,0.9,1c-0.6,0.8-0.6,2.2-2.2,2.3c-1.6,0.1-3.1,0.6-4.6,0.9c-0.4,0.1-0.8,0.3-1.3,0.1
		c-0.6-0.3-1.5-0.4-1.7,0.4c-0.2,0.9,0.6,1.3,1.4,1.5c0.4,0.1,0.9,0,1.4-0.1c1.8-0.4,3.6-0.8,5.4-1.2c-1.2,1.2-2.4,2.2-3.9,2.9
		c-0.4,0.2-0.8,0.3-0.7,0.9c0.1,0.5,0.5,0.6,0.9,0.7c0.5,0.1,1,0,1.5-0.2c1.8-0.5,3.5-0.9,5.3-1.4c0,2.2-1.5,2.3-3,2.3
		c-0.4,0-0.7,0-1.1,0c-1.1,0.1-1.5,0.8-0.9,1.7c1.2,1.9,0.9,3.7-0.1,5.6c-0.4,0.7-0.5,1.4-0.3,2.2c0.1,0.6,0.3,1.2,1.1,1.2
		c0.8,0,1-0.6,1.1-1.2c0.2-1.2,0.4-2.5,0.6-3.9c1.3,1.3,2.5,0.7,3.7,0.4c0.3-0.1,0.7-0.2,0.8,0.1c0.2,0.5,0.2,1-0.1,1.5
		c-0.2,0.4-0.5,0.2-0.8,0.1c-0.3-0.1-0.6-0.5-1-0.1c0.3,1.4,1,2.6,2.1,3.7c0.4,0.4,0.9,0.7,1.5,0.4c0.6-0.3,0.5-0.8,0.5-1.3
		c0-0.3-0.1-0.6-0.2-0.9c-0.6-2.3-0.5-4.5-0.2-6.8c0.4-2.7,0.4-2.8-2.1-4c0.7-0.4,1.3-0.7,1.9-1c0.5-0.3,1.4-0.3,1.2-1.1
		c-0.2-0.8-1-1-1.8-0.8c-0.8,0.1-1.6,0.4-2.3,0.6c-0.8,0.2-1.7,0.6-2.8,0.5c0.5-0.7,1.4-0.8,1.7-1.5c0.6-1.3,1.8-1.7,3.1-1.8
		c1.7-0.1,3.3-0.2,5-0.4c0.4,0,1,0,1-0.6C165.9,7.5,165.4,7.2,164.9,7z M159,17.1c0,1.1,0,2.3,0,3.6c-0.7-0.2-1.2-0.4-1.8-0.6
		c-0.1-0.8,2.1-1.4,0.3-2.3c-0.9-0.5-1.9,0.1-3-0.1c1-0.8,2-1.5,3.2-1.6C158.5,16,159,16.4,159,17.1z M190.4,10
		c-0.6-0.1-1.1-0.2-1.6-0.3c-0.7-0.2-1.1-0.5-0.5-1.3c0.5-0.6,0.6-1.2-0.3-1.6c-0.8-0.4-1.2,0.1-1.5,0.8c-0.5,1-1.2,1.9-2.1,2.6
		c-0.3,0.2-0.7,0.6-1,0.2c-0.3-0.4-0.1-0.8,0.2-1.1c0.4-0.3,0.9-0.4,1.4-0.6c0.9-0.4,1.1-0.9,0.1-1.5c-1-0.6-2.1-1-2.7-2.1
		c-0.2-0.4-0.9-0.6-1.4-0.2c-0.5,0.3-0.3,0.8-0.1,1.3c0.6,1.2,0.3,1.8-1.2,1.6c-0.4-0.1-0.8,0-0.8,0.4c-0.1,0.4,0.2,0.7,0.5,0.8
		c0.2,0.1,0.5,0.2,0.7,0.2c1.4,0.2,1.1,0.8,0.5,1.6c-0.9,1-1.9,1.6-3.1,2.1c-1.6,0.7-3.4,0.9-5.1,1.5c-0.9,0.3-2.5,0.4-2.3,1.5
		c0.3,1.2,1.8,0.6,2.8,0.3c2.9-0.8,5.5-2.2,8.5-3.2c0.2,0.5-0.1,0.7-0.3,0.9c-1.8,1.7-3.2,3.7-4.8,5.5c-0.9,0.9-1.8,1.8-3.1,2.1
		c-0.8,0.2-1.4,0.8-1.8,1.5c-0.3,0.5-0.2,1,0.1,1.4c0.3,0.4,0.8,0.3,1.3,0.2c0.7-0.3,1.4-0.6,1.9-1.2c1.3-1.8,3.2-3.1,4.6-4.8
		c0.5-0.6,1.1-1.5,1.8-1.1c0.7,0.4,0,1.3-0.1,1.9c-0.3,1.3,0.1,1.6,1.4,1.4c0.4-0.1,0.7-0.1,1,0.2c1,1.1,0.9,2.3,0.5,3.6
		c-0.4,1.2-1.3,1.6-2.5,1.5c-0.6-0.1-1.1-0.2-1.7-0.2c-0.3,0-0.7-0.1-0.8,0.3c-0.1,0.4,0.2,0.5,0.5,0.7c1.8,1.2,4.9,0.7,5.9-1
		c0.8-1.4,0.7-3,0.5-4.6c-0.2-1.1-1.2-1.1-1.9-1.5c-0.4-0.2-0.8-0.3-0.7-0.8c0.1-0.5,0.6-0.6,1-0.6c0.8,0,1.6,0,2.4,0
		c0.5,0,0.9-0.2,1-0.7c0.1-0.6-0.2-0.9-0.7-1.2c-0.6-0.2-1.1-0.1-1.6,0.1c-0.6,0.2-1.3,0.4-1.9,0.3c-0.9-0.2-1.3-0.5-0.5-1.4
		c0.5-0.6,1.1-1.2,1.5-1.9c0.7-1,1.6-1.5,3-1.4c1,0.2,2.1,0,3.2,0c0.6,0,1-0.3,1-0.9C191.4,10.2,190.9,10,190.4,10z M113,13.4
		c-0.9,0.2-1.8,0.6-2.8,0.9c-0.5,0.1-1,0.8-1.4,0.1c-0.4-0.6-0.3-1.3,0.2-1.8c1.3-1.5,2.6-2.8,4.3-3.8c0.5-0.3,1.1-0.5,0.8-1.2
		c-0.2-0.6-0.8-0.7-1.4-0.6c-0.4,0.1-0.9,0.2-1.3,0.4c-3.7,1.5-7.5,2.4-11.3,3.8c-0.8,0.3-1.6,0.6-2.6,0.2c-0.7-0.3-1.5,0-1.6,0.9
		c-0.2,0.9,0.5,1.3,1.2,1.4c0.7,0.1,1.4,0,2.1-0.2c1.6-0.5,3.1-1.1,4.6-2c1.7-1,3.6-1.4,5.5-2c-0.9,1.2-2.4,2.1-3.1,3.2
		c-1.4,2.1-3.2,3.7-4.9,5.3c-0.6,0.6-0.8,1.1-0.3,1.9c0.3,0.5,0.6,1,1,1.5c0.4,0.5,0.8,1.1,1.5,0.7c0.8-0.3,0.7-1,0.4-1.7
		c-0.2-0.6-0.5-1.3,0.2-1.8c0.7-0.5,1.6-1.1,2.3-0.8c0.7,0.2,0.4,1.3,0.5,2c0,0.5,0,1,0,1.5c0,1.9,0.1,3.8,0.4,5.6
		c0.1,0.3,0,0.8,0.6,0.7c0.5,0,0.8-0.3,0.8-0.8c0-0.4,0-0.7,0-1.1c0-1.7-0.2-3.5,0.1-5.3c2.4,1.3,2.7,1.2,3.6-1.2
		c0.5-1.3,0.8-2.7,1.9-3.8c0.3-0.3,0.6-0.9,0.2-1.4C114.1,13.6,113.6,13.3,113,13.4z M110.4,18.5c-0.1,0.3-0.4,0.2-0.6,0
		c-0.4-0.5-1.1-1-1-1.8c0-0.6,2-1.8,2.6-1.6c0.2,0.1,0.3,0.2,0.3,0.5C111.3,16.6,110.9,17.6,110.4,18.5z M216.2,18.6
		c-0.5,0-0.4,0.5-0.5,0.8c0,1.3,0.1,2.6-0.6,3.9c-0.9-0.7-1.5-1.5-2-2.4c-1.5-2.5-2.1-5.3-3.3-7.9c-0.3-0.7,0.1-1.1,0.6-1.6
		c0.4-0.3,0.6-0.7,0.4-1.2c-0.2-0.5-0.6-0.7-1.1-0.6c-1.2,0.3-1.5-0.4-1.7-1.4c-0.2-1-0.4-2-1.4-2.6c-0.4-0.2-0.9-0.6-1.4-0.1
		c-0.4,0.4-0.2,0.9,0,1.3c0.5,0.8,0.8,1.6,1.1,2.5c0.8,1.9,0.6,2.3-1.4,2.8c-0.2,0.1-0.5,0.1-0.7,0.1c-0.3,0-0.7,0.1-0.7,0.5
		c0,0.5,0.4,0.5,0.8,0.5c0.4,0,0.8,0.1,1.2,0c0.7-0.3,1.1-0.3,1.6,0.5c0.3,0.5,1.3,0.2,1.7,1.1c1,2.2,0.8,3.1-1.3,4.6
		c-0.1-0.7,0.2-1,0.4-1.4c0.3-0.9,1.1-1.8,0.3-2.7c-0.9-0.9-1.9-0.2-2.8,0.2c0,0-0.1,0-0.1,0.1c-0.5,0.3-1.5,0.3-1.3,1.2
		c0.2,0.9,1.1,0.5,1.7,0.5c0.1,0,0.1,0.1,0.2,0.3c-0.7,1.3-1.4,2.7-2.1,4c-0.5,1-0.1,1.4,0.9,1.4c1.3,0,2.2-0.9,3.2-1.7
		c2.6-2.2,2.6-2.2,4.3,0.8c0.8,1.3,1.5,2.7,2.9,3.5c1.2,0.7,2.1,0.3,2.3-1.1c0.2-1.8,0.1-3.5-0.5-5.3
		C216.5,19,216.6,18.6,216.2,18.6z M242.6,18.5c-0.5-0.2-0.7,0.2-0.9,0.6c-0.5,1.1-1.2,2.1-2.1,3c-1.5,1.4-3.1,1.3-4.3-0.4
		c-1.6-2.4-1.6-2.4,0.5-4.3c0.1-0.1,0.2-0.2,0.3-0.3c0.6-0.7,1.5-1.4,0.9-2.3c-0.5-0.8-1.6-0.4-2.4-0.2c-0.4,0.1-0.8,0.4-1.3,0.5
		c-0.3,0.1-0.6,0.3-1,0c0.8-0.6,1.6-1.1,2.4-1.7c0.6-0.5,0.7-1,0.1-1.5c-0.7-0.6-2.9-0.7-3.7-0.2c-0.3,0.2-0.5,0.7-0.3,0.9
		c1.3,1.3,0,1.6-0.7,2.2c-0.6,0.6-1.2,1.1-1.7,1.7c-0.5,0.6-1.2,1.2-0.5,2c0.6,0.8,1.5,0.4,2.2,0c1.1-0.6,2.1-1.2,3.1-1.8
		c0.1,0.1,0.2,0.2,0.2,0.3c-0.4,0.4-0.7,0.9-1.1,1.3c-1,1-2,1.9-3,2.8c-0.6,0.5-1.2,1.1-1.6,1.8c-0.2,0.4-0.5,0.9-0.1,1.3
		c0.4,0.4,1,0.3,1.4,0c0.8-0.5,1.3-1.3,1.8-2c0.7-1,1.3-1,2-0.1c0.4,0.5,0.8,1.1,1.2,1.6c0.6,0.8,1.3,1.2,2.3,1.3
		c3.2,0.2,6-2.2,6.2-5.4C242.9,19.1,243.1,18.7,242.6,18.5z M87.9,10.1c0.7-0.1,0.6-0.8,0.1-1.3c-0.9-0.8-1.9-0.8-2.9,0
		c-1.9,1.5-4.1,2.7-6.4,3.4c-0.4,0.1-0.9,0.5-1.3,0.2c-0.9-0.7-1.7-0.1-2.4,0.2c-0.7,0.3-1.5,0.7-1.3,1.6c0.2,1,1.1,1.3,2,1.2
		c1.4,0,2.6-0.8,3.7-1.6c0.6-0.4,1.1-1.1,2.1-1.2c-0.2,0.4-0.2,0.6-0.4,0.8c-2.3,3.2-4.5,6.5-6.8,9.7c-0.6,0.8-1.1,1.7-1.4,2.7
		c-0.1,0.4-0.2,0.9,0.3,1.2c0.5,0.3,1,0.2,1.4-0.2c0.3-0.3,0.5-0.6,0.7-1c1.7-3.6,3.7-7,6.2-10.1C83.4,13.6,84.4,10.5,87.9,10.1z
		 M226.9,13.8C226.9,13.8,226.9,13.8,226.9,13.8C226.8,13.8,226.8,13.8,226.9,13.8c-1.3-1.3-1.8-2.7-0.8-4.5
		c0.4-0.7,0.4-1.5-0.3-2.1c-0.7-0.6-1.3-0.2-2,0.1c-1.6,0.9-3.1,1.9-5,2.1c-0.5,0.1-0.8,0.5-0.7,1c0.1,0.5,0.4,0.7,0.9,0.7
		c0.8,0.1,1.5-0.1,2.2-0.5c0.7-0.4,1.4-0.9,2.1-1.3c0.4-0.2,0.9-0.3,0.7,0.4c-0.4,1.7,0.1,3.1,0.9,4.5c0.1,0.3,0.3,0.6-0.1,0.8
		c-0.3,0.2-0.6,0-0.8-0.2c-0.4-0.5-0.7-1-1-1.5c-0.2-0.3-0.6-0.6-1-0.5c-0.5,0.2-0.7,0.6-0.6,1.1c0.4,3.4-0.3,6.7-0.2,10
		c0,0.4,0.1,0.7,0.1,1.1c0.1,0.6,0.4,1,1,1c0.6,0,0.9-0.4,1-1c0.1-0.4,0.1-0.8,0.1-1.2c0.2-1.9,0.4-3.8,0-5.8
		c-0.1-0.6-0.2-1.5,1-1.4C226.8,16.8,227.2,16.3,226.9,13.8L226.9,13.8z M90.9,23.9c-1.6-0.9-3.2-1.8-4.8-2.6c-1-0.5-1-1.1-0.5-2
		c0.8-1.4,2.2-1.7,3.5-2.2c0.4-0.2,1.1-0.1,1.1-0.6c0-0.6-0.6-0.9-1.1-1.2c-0.4-0.2-0.9-0.2-1.3-0.1c-1.1,0.3-2.3,0.6-3.4-0.1
		c-0.3-0.2-0.8-0.1-1.1,0.2c-0.3,0.3-0.1,0.5,0,0.8c0.5,1.5,0.1,2.1-1.6,2c-0.6-0.1-1.3-0.3-1.4,0.6c-0.2,1.1,0.7,1.1,1.4,1.1
		c1.8,0.1,1.8,0.1,1,1.8c-0.2,0.3-0.3,0.7-0.4,1c-0.5,0.9-1,1.8-2.3,1.4c-0.7-0.2-1,0.4-0.8,1c0.3,1,0.9,1.4,2,1.1
		c1.1-0.3,1.8-1.2,2.4-2c1.3-1.8,1.7-1.9,3.6-0.7c0.6,0.4,1.2,0.9,1.8,1.4c0.9,0.7,1.7,1.4,2.6,2.1c0.4,0.3,1,0.4,1.4-0.1
		c0.3-0.4,0.1-0.9-0.2-1.3C92.2,24.8,91.6,24.3,90.9,23.9z M202.8,18.6c-0.5-0.3-0.9,0.3-1.2,0.6c-0.5,0.5-0.6,1.4-1.6,1.9
		c0.3-1.4,0.6-2.6,0.8-3.8c0.1-0.7,0.3-1.4-0.5-1.9c-0.7-0.5-1.4-0.5-2.1-0.1c-1.1,0.5-2.1,1.1-3.4,1.1c-0.9,0-1.1,1-0.9,1.8
		c0.2,0.9,0.9,0.8,1.6,0.5c0.4-0.2,0.8-0.6,1.3-0.8c0.5-0.3,1-1.2,1.6-0.7c0.5,0.4,0.2,1.2,0.1,1.9c-0.2,1.7-0.3,3.3-0.7,5
		c-0.1,0.6,0,1.4,0.7,1.7c0.7,0.3,1.1-0.2,1.5-0.6c1.4-1.5,2.3-3.2,2.9-5.1C203,19.5,203.4,18.9,202.8,18.6z M229,13
		c0.2-0.7,0.5-1.2,1-1.6c1.3-0.9,2.7-1.4,4.1-2.2c0.3,1.7,0.6,1.9,1.8,1.2c0.4-0.2,0.9-0.5,1.3-0.7c0.6-0.3,1.3-0.5,1.1-1.4
		c-0.2-0.7-0.8-1.1-1.5-1.1c-1.9,0.3-3.8,0.4-5.3-1.3c-0.4-0.4-1-0.2-1.3,0.3c-0.3,0.5,0.1,0.8,0.6,1c1.1,0.4,0.9,0.9,0.2,1.5
		c-0.7,0.6-1.3,1.5-2.5,0.9c-0.5-0.3-0.8,0.2-1.1,0.5c-1.2,1.1-0.4,2.5-0.7,3.7C228.4,14.8,228.6,14.8,229,13z M55,8
		c2.1-0.4,4-1.4,6.1-1.7c0.4-0.1,0.6-0.5,0.5-1c-0.2-0.6-0.7-0.9-1.4-1.1c-0.5-0.1-1.1-0.1-1.3,0.4c-0.4,0.9-1.2,1.1-2,1.4
		c-0.8,0.3-1.5,0.6-2.2,0.9c-0.3,0.1-0.7,0.2-0.5,0.6C54.2,8,54.6,8,55,8z M79.4,6.1c0.3,0.2,1.1,0,0.6,0.8c-0.2,0.3-1,0.4-0.7,0.9
		c0.3,0.5,1,0.4,1.6,0.3c0.6-0.2,1.2-0.4,1.8-0.7c1-0.5,1-1.3,0-1.9c-0.9-0.5-2-0.5-3.1-0.7c-0.5,0-1.1-0.1-1.2,0.4
		C78.4,5.8,79.1,5.8,79.4,6.1z M103.8,5.5c1.3,0.5,2.5,1.1,3.6,1.9c0.5,0.4,1.2-0.1,1.4-0.8c0.2-0.6,0-1-0.5-1.2
		c-1.4-0.5-2.9-0.5-4.1-1.2c-0.4,0-0.6,0-0.7,0.3C103.4,5,103.5,5.4,103.8,5.5z M199.1,8.9c0.9,0.4,0.8,1,0.5,1.7
		c-0.1,0.3-0.3,0.6,0,0.9c0.3,0.3,0.7,0.2,1,0c1-0.4,1.8-1.1,1.7-2.3c0-1.3-1.1-1-1.9-1.3c-0.2-0.1-0.5-0.1-0.7-0.1
		c-0.4,0-0.8-0.1-0.9,0.3C198.6,8.5,198.8,8.8,199.1,8.9z M215,8.7c0.6,0,1-0.3,0.9-0.9c-0.2-1.4-1.4-1.4-2.4-1.6
		c-0.4,0.1-1-0.2-1,0.6C212.5,7.4,214.2,8.7,215,8.7z"></path></g><g><path fill="#193169" d="M53.3,35c-0.3,0.2-0.7,0.2-1.1,0.2c-0.3,0-0.6-0.1-0.9-0.3c-0.2-0.1-0.4-0.3-0.6-0.6
		c-0.2-0.3-0.3-0.6-0.3-1c-0.1-0.4-0.1-0.7-0.1-1.1c0-0.9,0.1-1.6,0.4-2.1c0.3-0.6,0.8-0.9,1.4-0.9c0.5,0,1,0.2,1.4,0.7
		c0.4,0.4,0.6,0.8,0.8,1.3h0.2v-2.2h-0.3c-0.1,0.2-0.1,0.3-0.2,0.3c-0.1,0.1-0.2,0.1-0.3,0.1c-0.3-0.1-0.6-0.2-0.9-0.3
		c-0.3-0.1-0.6-0.2-0.9-0.2c-1,0-1.8,0.3-2.4,1c-0.6,0.7-0.9,1.5-0.9,2.4c0,0.9,0.3,1.7,0.9,2.3c0.6,0.7,1.5,1,2.5,1
		c0.6,0,1.1-0.1,1.5-0.4c0.3-0.2,0.7-0.5,1.1-1L54.5,34C54.1,34.5,53.7,34.8,53.3,35z M59.8,35c0-0.1-0.1-0.2-0.1-0.3v-2.4
		c0-0.5-0.1-0.8-0.4-1.1C59,31.1,58.8,31,58.4,31c-0.2,0-0.5,0.1-0.7,0.2c-0.2,0.1-0.4,0.3-0.7,0.6V29h-1.8v0.2
		c0.2,0,0.3,0.1,0.4,0.2c0.1,0.1,0.1,0.2,0.1,0.4v4.9c0,0.2,0,0.4-0.1,0.4c-0.1,0.1-0.2,0.1-0.4,0.1v0.2h2.3v-0.2
		c-0.2,0-0.3-0.1-0.4-0.2c0-0.1-0.1-0.2-0.1-0.3v-2.5c0-0.1,0.1-0.2,0.3-0.3c0.2-0.2,0.4-0.2,0.5-0.2c0.2,0,0.4,0.1,0.5,0.3
		c0,0.1,0.1,0.3,0.1,0.5v2.3c0,0.3-0.1,0.5-0.4,0.5v0.2h2.2v-0.2C60,35.2,59.8,35.2,59.8,35z M62.8,31c-0.6,0-1.2,0.2-1.6,0.7
		c-0.4,0.5-0.6,1-0.6,1.6c0,0.6,0.2,1.2,0.6,1.6c0.4,0.4,0.9,0.7,1.6,0.7c0.6,0,1.2-0.2,1.6-0.7c0.4-0.4,0.6-1,0.6-1.6
		c0-0.7-0.2-1.2-0.6-1.7C63.9,31.2,63.4,31,62.8,31z M63.4,34.8c-0.1,0.4-0.3,0.6-0.6,0.6c-0.3,0-0.6-0.2-0.7-0.6
		C62.1,34.4,62,34,62,33.3c0-0.7,0-1.1,0.1-1.4c0.1-0.4,0.3-0.6,0.6-0.6c0.3,0,0.5,0.2,0.6,0.5c0.1,0.3,0.2,0.8,0.2,1.6
		C63.5,34,63.5,34.5,63.4,34.8z M69.9,35.1c0-0.1-0.1-0.2-0.1-0.4v-2.4c0-0.5-0.1-0.8-0.4-1.1c-0.2-0.2-0.5-0.3-0.8-0.3
		c-0.3,0-0.7,0.1-0.9,0.3c-0.2,0.1-0.3,0.3-0.4,0.5v-0.7h-1.8v0.2c0.2,0,0.3,0.1,0.4,0.1c0.1,0.1,0.1,0.2,0.1,0.4v2.8
		c0,0.2,0,0.4-0.1,0.4c-0.1,0.1-0.2,0.1-0.4,0.1v0.2h2.3v-0.2c-0.2,0-0.3-0.1-0.4-0.2c0-0.1-0.1-0.2-0.1-0.3v-2.5
		c0-0.1,0.1-0.2,0.3-0.3c0.2-0.2,0.4-0.2,0.5-0.2c0.2,0,0.4,0.1,0.5,0.3c0,0.1,0.1,0.3,0.1,0.5v2.3c0,0.3-0.1,0.5-0.4,0.5v0.2h2.2
		v-0.2C70.1,35.2,70,35.2,69.9,35.1z M73.3,31c-0.2,0-0.3,0-0.5,0c-0.6,0-1.1,0.2-1.5,0.5c-0.3,0.3-0.5,0.6-0.5,1
		c0,0.3,0.1,0.6,0.3,0.9c0.2,0.2,0.5,0.4,0.9,0.6c-0.3,0.1-0.5,0.2-0.7,0.4c-0.3,0.2-0.4,0.5-0.4,0.7c0,0.2,0.1,0.4,0.2,0.5
		c0.1,0.1,0.3,0.2,0.5,0.3c-0.3,0-0.5,0.1-0.6,0.2c-0.2,0.1-0.2,0.3-0.2,0.5c0,0.3,0.2,0.5,0.5,0.6c0.3,0.2,0.8,0.2,1.4,0.2
		c0.7,0,1.3-0.1,1.7-0.3c0.5-0.2,0.8-0.6,0.8-1.2c0-0.5-0.2-0.8-0.6-1c-0.3-0.1-0.6-0.2-1-0.2h-0.6c-0.4,0-0.7,0-0.8-0.1
		c-0.1,0-0.2-0.1-0.2-0.3c0-0.1,0.1-0.2,0.2-0.3c0.1-0.1,0.2-0.1,0.3-0.1c0.3,0,0.5,0,0.7,0c0.2,0,0.4,0,0.5-0.1
		c0.3-0.1,0.6-0.3,0.8-0.5c0.2-0.2,0.2-0.5,0.2-0.8c0-0.2-0.1-0.5-0.2-0.7c-0.1-0.1-0.1-0.2-0.2-0.3h0.8v-0.5h-1.2
		C73.6,31.1,73.5,31.1,73.3,31z M73.6,36c0.5,0,0.8,0.2,0.8,0.5c0,0.3-0.2,0.5-0.6,0.6c-0.2,0.1-0.5,0.1-0.9,0.1
		c-0.2,0-0.5,0-0.6-0.1c-0.3-0.1-0.5-0.3-0.5-0.5c0-0.2,0.1-0.4,0.3-0.5H73.6z M73.3,33.3c-0.1,0.3-0.3,0.4-0.5,0.4
		c-0.3,0-0.4-0.1-0.5-0.4c-0.1-0.2-0.1-0.5-0.1-0.9c0-0.4,0-0.7,0.1-0.8c0.1-0.3,0.3-0.4,0.5-0.4c0.3,0,0.5,0.2,0.6,0.5
		c0.1,0.2,0.1,0.4,0.1,0.8C73.4,32.9,73.4,33.2,73.3,33.3z M79.8,36.6V31h-0.1l-0.7,0.5c-0.2-0.2-0.4-0.3-0.6-0.4
		C78.2,31,78,31,77.7,31c-0.7,0-1.2,0.2-1.6,0.7c-0.4,0.4-0.5,1-0.5,1.6c0,0.8,0.2,1.4,0.5,1.8c0.3,0.4,0.7,0.5,1.3,0.5
		c0.2,0,0.3,0,0.5-0.1c0.2-0.1,0.4-0.2,0.6-0.4v1.3c0,0.3-0.1,0.5-0.2,0.6c-0.1,0.1-0.3,0.1-0.5,0.2v0.2h2.5v-0.2
		c-0.2,0-0.3-0.1-0.4-0.1C79.9,37,79.8,36.9,79.8,36.6z M78.5,34.5c-0.1,0.1-0.1,0.2-0.1,0.3c-0.1,0.2-0.3,0.3-0.5,0.3
		c-0.6,0-0.9-0.6-0.9-1.9c0-0.5,0.1-0.9,0.2-1.3c0.1-0.4,0.4-0.7,0.7-0.7c0.2,0,0.4,0.1,0.5,0.2c0.1,0.1,0.2,0.3,0.2,0.5V34.5z
		 M82.5,34.7v-3.6h-1.8v0.2c0.2,0,0.3,0.1,0.4,0.2c0.1,0.1,0.1,0.2,0.1,0.4v2.8c0,0.2,0,0.4-0.1,0.4c-0.1,0-0.2,0.1-0.4,0.1v0.2H83
		v-0.2c-0.2,0-0.3-0.1-0.4-0.2C82.6,35,82.5,34.9,82.5,34.7z M81.9,30.4c0.2,0,0.4-0.1,0.5-0.2c0.1-0.1,0.2-0.3,0.2-0.5
		c0-0.2-0.1-0.4-0.2-0.5c-0.1-0.1-0.3-0.2-0.5-0.2c-0.2,0-0.4,0.1-0.5,0.2c-0.1,0.1-0.2,0.3-0.2,0.5c0,0.2,0.1,0.4,0.2,0.5
		S81.6,30.4,81.9,30.4z M87.9,35.1c0-0.1-0.1-0.2-0.1-0.4v-2.4c0-0.5-0.1-0.8-0.4-1.1c-0.2-0.2-0.5-0.3-0.8-0.3
		c-0.3,0-0.7,0.1-0.9,0.3c-0.2,0.1-0.3,0.3-0.4,0.5v-0.7h-1.8v0.2c0.2,0,0.3,0.1,0.4,0.1c0.1,0.1,0.1,0.2,0.1,0.4v2.8
		c0,0.2,0,0.4-0.1,0.4c-0.1,0.1-0.2,0.1-0.4,0.1v0.2h2.3v-0.2c-0.2,0-0.3-0.1-0.4-0.2c0-0.1-0.1-0.2-0.1-0.3v-2.5
		c0-0.1,0.1-0.2,0.3-0.3c0.2-0.2,0.4-0.2,0.5-0.2c0.2,0,0.4,0.1,0.5,0.3c0,0.1,0.1,0.3,0.1,0.5v2.3c0,0.3-0.1,0.5-0.4,0.5v0.2h2.2
		v-0.2C88.1,35.2,88,35.2,87.9,35.1z M91.3,31c-0.2,0-0.3,0-0.5,0c-0.6,0-1.1,0.2-1.5,0.5c-0.3,0.3-0.5,0.6-0.5,1
		c0,0.3,0.1,0.6,0.3,0.9c0.2,0.2,0.5,0.4,0.9,0.6c-0.3,0.1-0.5,0.2-0.7,0.4c-0.3,0.2-0.4,0.5-0.4,0.7c0,0.2,0.1,0.4,0.2,0.5
		c0.1,0.1,0.3,0.2,0.5,0.3c-0.3,0-0.5,0.1-0.6,0.2c-0.2,0.1-0.2,0.3-0.2,0.5c0,0.3,0.2,0.5,0.5,0.6c0.3,0.2,0.8,0.2,1.4,0.2
		c0.7,0,1.3-0.1,1.7-0.3c0.5-0.2,0.8-0.6,0.8-1.2c0-0.5-0.2-0.8-0.6-1c-0.3-0.1-0.6-0.2-1-0.2h-0.6c-0.4,0-0.7,0-0.8-0.1
		c-0.1,0-0.2-0.1-0.2-0.3c0-0.1,0.1-0.2,0.2-0.3c0.1-0.1,0.2-0.1,0.3-0.1c0.3,0,0.5,0,0.7,0c0.2,0,0.4,0,0.5-0.1
		c0.3-0.1,0.6-0.3,0.8-0.5c0.2-0.2,0.2-0.5,0.2-0.8c0-0.2-0.1-0.5-0.2-0.7c-0.1-0.1-0.1-0.2-0.2-0.3h0.8v-0.5h-1.2
		C91.7,31.1,91.5,31.1,91.3,31z M91.6,36c0.5,0,0.8,0.2,0.8,0.5c0,0.3-0.2,0.5-0.6,0.6c-0.2,0.1-0.5,0.1-0.9,0.1
		c-0.2,0-0.5,0-0.6-0.1c-0.3-0.1-0.5-0.3-0.5-0.5c0-0.2,0.1-0.4,0.3-0.5H91.6z M91.3,33.3c-0.1,0.3-0.3,0.4-0.5,0.4
		c-0.3,0-0.4-0.1-0.5-0.4c-0.1-0.2-0.1-0.5-0.1-0.9c0-0.4,0-0.7,0.1-0.8c0.1-0.3,0.3-0.4,0.5-0.4c0.3,0,0.5,0.2,0.6,0.5
		c0.1,0.2,0.1,0.4,0.1,0.8C91.4,32.9,91.4,33.2,91.3,33.3z M100.4,34.9c-0.4,0.2-0.8,0.3-1.4,0.3c-0.3,0-0.5,0-0.6-0.1
		c-0.1-0.1-0.2-0.2-0.2-0.4v-2.3c0.5,0,0.9,0.1,1.1,0.3c0.2,0.2,0.4,0.6,0.4,1.2h0.2v-3.2h-0.2c-0.1,0.6-0.2,0.9-0.5,1.2
		C99,31.9,98.7,32,98.2,32v-2.2c0-0.2,0-0.3,0.1-0.4c0.1-0.1,0.3-0.1,0.6-0.1c0.7,0,1.2,0.1,1.5,0.3c0.4,0.2,0.6,0.7,0.7,1.3h0.2V29
		h-5.5v0.2c0.3,0,0.5,0,0.6,0.1c0.2,0.1,0.2,0.3,0.2,0.6v4.6c0,0.3-0.1,0.5-0.2,0.5c-0.1,0.1-0.3,0.1-0.6,0.1v0.2h5.6l0.4-2h-0.3
		C101.2,34.2,100.9,34.6,100.4,34.9z M106.6,34.9c-0.1-0.1-0.1-0.2-0.1-0.4V29h-2.1v0.2c0.3,0,0.5,0,0.6,0.1
		c0.1,0.1,0.1,0.2,0.1,0.5v1.7c-0.2-0.2-0.4-0.4-0.6-0.5c-0.2-0.1-0.3-0.1-0.5-0.1c-0.5,0-0.9,0.2-1.3,0.6c-0.4,0.5-0.6,1.1-0.6,1.9
		c0,0.7,0.2,1.2,0.5,1.6c0.3,0.4,0.7,0.6,1.1,0.6c0.3,0,0.6-0.1,0.8-0.2c0.1-0.1,0.3-0.2,0.5-0.4v0.6c0.3-0.1,0.5-0.1,0.7-0.2
		c0.2,0,0.6-0.1,1.2-0.2v-0.2C106.9,35.1,106.7,35,106.6,34.9z M105.2,34.4c0,0.1-0.1,0.2-0.2,0.4c-0.2,0.2-0.4,0.3-0.6,0.3
		c-0.3,0-0.6-0.2-0.7-0.7c-0.1-0.3-0.1-0.6-0.1-1.1c0-0.5,0.1-1,0.2-1.2c0.1-0.4,0.3-0.5,0.7-0.5c0.2,0,0.4,0.1,0.6,0.3
		c0.1,0.1,0.1,0.2,0.2,0.3V34.4z M111.9,34.5v-3.4H110v0.2c0.2,0,0.4,0.1,0.4,0.1c0.1,0.1,0.2,0.2,0.2,0.5v2.7
		c-0.1,0.1-0.2,0.2-0.3,0.3c-0.1,0.1-0.3,0.1-0.5,0.1c-0.2,0-0.4-0.1-0.5-0.2c0-0.1-0.1-0.2-0.1-0.4v-3.2h-1.8v0.2
		c0.2,0,0.3,0.1,0.4,0.2c0.1,0.1,0.1,0.2,0.1,0.4v2.4c0,0.4,0.1,0.7,0.3,0.9c0.2,0.3,0.6,0.4,1,0.4c0.3,0,0.6-0.1,0.8-0.2
		c0.1-0.1,0.3-0.2,0.5-0.4v0.6c0.3-0.1,0.6-0.2,0.9-0.2c0.1,0,0.4,0,1-0.1v-0.2c-0.2,0-0.3,0-0.4-0.1
		C112,34.9,111.9,34.7,111.9,34.5z M116.2,34.8c-0.2,0.1-0.4,0.2-0.6,0.2c-0.4,0-0.7-0.2-1-0.6c-0.2-0.4-0.4-0.9-0.4-1.5
		c0-0.5,0.1-0.9,0.2-1.2c0.1-0.3,0.3-0.4,0.6-0.4c0.1,0,0.2,0,0.3,0.1c0.1,0.1,0.1,0.2,0.1,0.3c0,0.4,0,0.7,0.1,0.8
		c0.1,0.1,0.2,0.2,0.4,0.2c0.2,0,0.3-0.1,0.5-0.2c0.1-0.1,0.2-0.3,0.2-0.5c0-0.3-0.2-0.6-0.5-0.8c-0.3-0.2-0.6-0.3-1-0.3
		c-0.6,0-1.1,0.2-1.5,0.5c-0.5,0.4-0.8,1.1-0.8,1.9c0,0.6,0.2,1.1,0.6,1.5c0.4,0.4,0.9,0.6,1.5,0.6c0.4,0,0.7-0.1,1-0.3
		c0.3-0.2,0.6-0.4,0.8-0.7l-0.2-0.2C116.4,34.6,116.3,34.7,116.2,34.8z M121.3,35C121.3,35,121.2,35,121.3,35c-0.2,0-0.2,0-0.3,0
		c0,0,0-0.1,0-0.2v-2.5c0-0.4-0.2-0.8-0.5-1c-0.4-0.2-0.8-0.3-1.4-0.3c-0.6,0-1,0.1-1.3,0.4c-0.3,0.2-0.4,0.5-0.4,0.8
		c0,0.2,0.1,0.4,0.2,0.5c0.1,0.1,0.3,0.2,0.5,0.2c0.2,0,0.3,0,0.4-0.1c0.1-0.1,0.2-0.2,0.2-0.4c0-0.1,0-0.3-0.1-0.4
		c-0.1-0.1-0.1-0.2-0.1-0.3c0-0.1,0.1-0.2,0.2-0.2c0.1-0.1,0.2-0.1,0.4-0.1c0.3,0,0.6,0.1,0.7,0.2c0.1,0.1,0.2,0.3,0.2,0.6v0.7
		c-0.9,0.3-1.5,0.5-1.8,0.7c-0.5,0.3-0.8,0.7-0.8,1.1c0,0.3,0.1,0.6,0.4,0.8c0.2,0.2,0.4,0.2,0.7,0.2c0.2,0,0.4,0,0.6-0.1
		c0.3-0.1,0.6-0.3,0.9-0.6c0,0.2,0.1,0.4,0.2,0.4c0.1,0.2,0.3,0.2,0.6,0.2c0.2,0,0.4,0,0.6-0.1c0.2-0.1,0.3-0.2,0.5-0.4L121.3,35
		L121.3,35z M119.7,34.5c-0.1,0.1-0.2,0.2-0.3,0.3c-0.1,0.1-0.3,0.1-0.4,0.1c-0.2,0-0.3-0.1-0.4-0.2c-0.1-0.1-0.1-0.3-0.1-0.4
		c0-0.3,0.1-0.5,0.3-0.7c0.2-0.2,0.5-0.3,0.9-0.4V34.5z M124.3,34.8c-0.1,0.1-0.2,0.1-0.3,0.1c-0.2,0-0.3-0.1-0.3-0.2
		c0-0.1,0-0.2,0-0.3v-2.9h0.9v-0.4h-0.9v-1.6h-0.2c-0.3,0.4-0.6,0.8-0.8,1.1c-0.2,0.2-0.4,0.5-0.7,0.7v0.3h0.5v3.1
		c0,0.2,0.1,0.4,0.2,0.6c0.2,0.3,0.5,0.4,0.9,0.4c0.4,0,0.7-0.1,1-0.4c0.1-0.1,0.3-0.4,0.4-0.7l-0.2-0.1
		C124.5,34.6,124.4,34.8,124.3,34.8z M126.8,34.7v-3.6H125v0.2c0.2,0,0.3,0.1,0.4,0.2c0.1,0.1,0.1,0.2,0.1,0.4v2.8
		c0,0.2,0,0.4-0.1,0.4c-0.1,0-0.2,0.1-0.4,0.1v0.2h2.3v-0.2c-0.2,0-0.3-0.1-0.4-0.2C126.8,35,126.8,34.9,126.8,34.7z M126.1,30.4
		c0.2,0,0.4-0.1,0.5-0.2c0.1-0.1,0.2-0.3,0.2-0.5c0-0.2-0.1-0.4-0.2-0.5c-0.1-0.1-0.3-0.2-0.5-0.2c-0.2,0-0.4,0.1-0.5,0.2
		c-0.1,0.1-0.2,0.3-0.2,0.5c0,0.2,0.1,0.4,0.2,0.5C125.7,30.3,125.9,30.4,126.1,30.4z M129.9,31c-0.6,0-1.2,0.2-1.6,0.7
		c-0.4,0.5-0.6,1-0.6,1.6c0,0.6,0.2,1.2,0.6,1.6c0.4,0.4,0.9,0.7,1.6,0.7c0.6,0,1.2-0.2,1.6-0.7c0.4-0.4,0.6-1,0.6-1.6
		c0-0.7-0.2-1.2-0.6-1.7C131,31.2,130.5,31,129.9,31z M130.5,34.8c-0.1,0.4-0.3,0.6-0.6,0.6c-0.3,0-0.6-0.2-0.7-0.6
		c-0.1-0.3-0.1-0.7-0.1-1.4c0-0.7,0-1.1,0.1-1.4c0.1-0.4,0.3-0.6,0.6-0.6c0.3,0,0.5,0.2,0.6,0.5c0.1,0.3,0.2,0.8,0.2,1.6
		C130.6,34,130.6,34.5,130.5,34.8z M137,35.1c0-0.1-0.1-0.2-0.1-0.4v-2.4c0-0.5-0.1-0.8-0.4-1.1c-0.2-0.2-0.5-0.3-0.8-0.3
		c-0.3,0-0.7,0.1-0.9,0.3c-0.2,0.1-0.3,0.3-0.4,0.5v-0.7h-1.8v0.2c0.2,0,0.3,0.1,0.4,0.1c0.1,0.1,0.1,0.2,0.1,0.4v2.8
		c0,0.2,0,0.4-0.1,0.4c-0.1,0.1-0.2,0.1-0.4,0.1v0.2h2.3v-0.2c-0.2,0-0.3-0.1-0.4-0.2c0-0.1-0.1-0.2-0.1-0.3v-2.5
		c0-0.1,0.1-0.2,0.3-0.3c0.2-0.2,0.4-0.2,0.5-0.2c0.2,0,0.4,0.1,0.5,0.3c0,0.1,0.1,0.3,0.1,0.5v2.3c0,0.3-0.1,0.5-0.4,0.5v0.2h2.2
		v-0.2C137.2,35.2,137,35.2,137,35.1z M144.7,34.9c-0.4,0.2-0.8,0.3-1.4,0.3c-0.3,0-0.5,0-0.6-0.1c-0.1-0.1-0.2-0.2-0.2-0.4v-2.3
		c0.5,0,0.9,0.1,1.1,0.3c0.2,0.2,0.4,0.6,0.4,1.2h0.2v-3.2H144c-0.1,0.6-0.2,0.9-0.5,1.2c-0.2,0.2-0.6,0.3-1.1,0.3v-2.2
		c0-0.2,0-0.3,0.1-0.4c0.1-0.1,0.3-0.1,0.6-0.1c0.7,0,1.2,0.1,1.5,0.3c0.4,0.2,0.6,0.7,0.7,1.3h0.2V29h-5.5v0.2c0.3,0,0.5,0,0.6,0.1
		c0.2,0.1,0.2,0.3,0.2,0.6v4.6c0,0.3-0.1,0.5-0.2,0.5c-0.1,0.1-0.3,0.1-0.6,0.1v0.2h5.6l0.4-2h-0.3
		C145.5,34.2,145.1,34.6,144.7,34.9z M150.6,35.1l-1.4-2.2l1-1.2c0.2-0.2,0.4-0.3,0.7-0.4v-0.2h-1.6v0.2c0.2,0,0.3,0,0.4,0
		c0.1,0,0.1,0.1,0.1,0.2c0,0.1-0.1,0.2-0.2,0.4c-0.1,0.2-0.3,0.4-0.5,0.7c-0.1-0.1-0.2-0.3-0.4-0.6c-0.2-0.3-0.3-0.5-0.3-0.5
		c0-0.1,0-0.1,0.1-0.1c0.1,0,0.2,0,0.3,0v-0.2h-2.4v0.2c0.2,0,0.3,0.1,0.5,0.4l1.2,1.9c-0.6,0.8-1,1.3-1.1,1.4
		c-0.2,0.1-0.3,0.2-0.5,0.3v0.2h1.6v-0.2c-0.2,0-0.3,0-0.4-0.1c-0.1,0-0.1-0.1-0.1-0.2c0-0.1,0.1-0.3,0.3-0.6
		c0.1-0.2,0.3-0.4,0.4-0.6c0.1,0.2,0.2,0.4,0.4,0.5c0.1,0.2,0.2,0.3,0.2,0.3C149,34.8,149,35,149,35c0,0.1,0,0.1-0.1,0.2
		c-0.1,0-0.2,0-0.3,0v0.2h2.3v-0.2c-0.1,0-0.1,0-0.2-0.1C150.7,35.2,150.7,35.1,150.6,35.1z M155.5,35C155.5,35,155.4,35,155.5,35
		c-0.2,0-0.2,0-0.3,0c0,0,0-0.1,0-0.2v-2.5c0-0.4-0.2-0.8-0.5-1c-0.4-0.2-0.8-0.3-1.4-0.3c-0.6,0-1,0.1-1.3,0.4
		c-0.3,0.2-0.4,0.5-0.4,0.8c0,0.2,0.1,0.4,0.2,0.5c0.1,0.1,0.3,0.2,0.5,0.2c0.2,0,0.3,0,0.4-0.1c0.1-0.1,0.2-0.2,0.2-0.4
		c0-0.1,0-0.3-0.1-0.4c-0.1-0.1-0.1-0.2-0.1-0.3c0-0.1,0.1-0.2,0.2-0.2c0.1-0.1,0.2-0.1,0.4-0.1c0.3,0,0.6,0.1,0.7,0.2
		c0.1,0.1,0.2,0.3,0.2,0.6v0.7c-0.9,0.3-1.5,0.5-1.8,0.7c-0.5,0.3-0.8,0.7-0.8,1.1c0,0.3,0.1,0.6,0.4,0.8c0.2,0.2,0.4,0.2,0.7,0.2
		c0.2,0,0.4,0,0.6-0.1c0.3-0.1,0.6-0.3,0.9-0.6c0,0.2,0.1,0.4,0.2,0.4c0.1,0.2,0.3,0.2,0.6,0.2c0.2,0,0.4,0,0.6-0.1
		c0.2-0.1,0.3-0.2,0.5-0.4L155.5,35L155.5,35z M153.9,34.5c-0.1,0.1-0.2,0.2-0.3,0.3c-0.1,0.1-0.3,0.1-0.4,0.1
		c-0.2,0-0.3-0.1-0.4-0.2c-0.1-0.1-0.1-0.3-0.1-0.4c0-0.3,0.1-0.5,0.3-0.7c0.2-0.2,0.5-0.3,0.9-0.4V34.5z M163.2,35.1
		c0-0.1-0.1-0.2-0.1-0.4v-2.4c0-0.5-0.1-0.8-0.4-1.1c-0.2-0.2-0.5-0.3-0.8-0.3c-0.3,0-0.5,0.1-0.7,0.2c-0.2,0.1-0.5,0.3-0.7,0.6
		c-0.1-0.2-0.2-0.4-0.4-0.5c-0.2-0.2-0.5-0.3-0.9-0.3c-0.3,0-0.7,0.1-0.9,0.3c-0.2,0.1-0.3,0.3-0.4,0.5v-0.7H156v0.2
		c0.2,0,0.3,0.1,0.4,0.1c0.1,0.1,0.2,0.2,0.2,0.4v2.8c0,0.2,0,0.4-0.1,0.4c-0.1,0-0.2,0.1-0.4,0.1v0.2h2.3v-0.2
		c-0.2,0-0.3-0.1-0.4-0.2c-0.1-0.1-0.1-0.2-0.1-0.4v-2.5c0-0.1,0.1-0.2,0.2-0.3c0.2-0.2,0.4-0.2,0.6-0.2c0.2,0,0.4,0.1,0.5,0.3
		c0,0.1,0.1,0.3,0.1,0.5v2.3c0,0.2,0,0.3-0.1,0.4c-0.1,0.1-0.2,0.2-0.4,0.2v0.2h2.2v-0.2c-0.2,0-0.3,0-0.3-0.1
		c-0.1-0.1-0.1-0.2-0.1-0.4v-2.5c0-0.1,0.1-0.2,0.2-0.3c0.2-0.2,0.4-0.2,0.6-0.2c0.2,0,0.4,0.1,0.5,0.3c0,0.1,0.1,0.3,0.1,0.5v2.3
		c0,0.2,0,0.3-0.1,0.4c-0.1,0.1-0.2,0.2-0.4,0.2v0.2h2.3v-0.2C163.4,35.2,163.3,35.2,163.2,35.1z M165.8,34.7v-3.6h-1.8v0.2
		c0.2,0,0.3,0.1,0.4,0.2c0.1,0.1,0.1,0.2,0.1,0.4v2.8c0,0.2,0,0.4-0.1,0.4c-0.1,0-0.2,0.1-0.4,0.1v0.2h2.3v-0.2
		c-0.2,0-0.3-0.1-0.4-0.2C165.8,35,165.8,34.9,165.8,34.7z M165.1,30.4c0.2,0,0.4-0.1,0.5-0.2c0.1-0.1,0.2-0.3,0.2-0.5
		c0-0.2-0.1-0.4-0.2-0.5c-0.1-0.1-0.3-0.2-0.5-0.2c-0.2,0-0.4,0.1-0.5,0.2c-0.1,0.1-0.2,0.3-0.2,0.5c0,0.2,0.1,0.4,0.2,0.5
		C164.7,30.3,164.9,30.4,165.1,30.4z M171.2,35.1c0-0.1-0.1-0.2-0.1-0.4v-2.4c0-0.5-0.1-0.8-0.4-1.1c-0.2-0.2-0.5-0.3-0.8-0.3
		c-0.3,0-0.7,0.1-0.9,0.3c-0.2,0.1-0.3,0.3-0.4,0.5v-0.7h-1.8v0.2c0.2,0,0.3,0.1,0.4,0.1c0.1,0.1,0.1,0.2,0.1,0.4v2.8
		c0,0.2,0,0.4-0.1,0.4c-0.1,0.1-0.2,0.1-0.4,0.1v0.2h2.3v-0.2c-0.2,0-0.3-0.1-0.4-0.2c0-0.1-0.1-0.2-0.1-0.3v-2.5
		c0-0.1,0.1-0.2,0.3-0.3c0.2-0.2,0.4-0.2,0.5-0.2c0.2,0,0.4,0.1,0.5,0.3c0,0.1,0.1,0.3,0.1,0.5v2.3c0,0.3-0.1,0.5-0.4,0.5v0.2h2.2
		v-0.2C171.4,35.2,171.2,35.2,171.2,35.1z M176.2,35C176.1,35,176.1,35,176.2,35c-0.2,0-0.2,0-0.3,0c0,0,0-0.1,0-0.2v-2.5
		c0-0.4-0.2-0.8-0.5-1c-0.4-0.2-0.8-0.3-1.4-0.3c-0.6,0-1,0.1-1.3,0.4c-0.3,0.2-0.4,0.5-0.4,0.8c0,0.2,0.1,0.4,0.2,0.5
		c0.1,0.1,0.3,0.2,0.5,0.2c0.2,0,0.3,0,0.4-0.1c0.1-0.1,0.2-0.2,0.2-0.4c0-0.1,0-0.3-0.1-0.4c-0.1-0.1-0.1-0.2-0.1-0.3
		c0-0.1,0.1-0.2,0.2-0.2c0.1-0.1,0.2-0.1,0.4-0.1c0.3,0,0.6,0.1,0.7,0.2c0.1,0.1,0.2,0.3,0.2,0.6v0.7c-0.9,0.3-1.5,0.5-1.8,0.7
		c-0.5,0.3-0.8,0.7-0.8,1.1c0,0.3,0.1,0.6,0.4,0.8c0.2,0.2,0.4,0.2,0.7,0.2c0.2,0,0.4,0,0.6-0.1c0.3-0.1,0.6-0.3,0.9-0.6
		c0,0.2,0.1,0.4,0.2,0.4c0.1,0.2,0.3,0.2,0.6,0.2c0.2,0,0.4,0,0.6-0.1c0.2-0.1,0.3-0.2,0.5-0.4L176.2,35L176.2,35z M174.6,34.5
		c-0.1,0.1-0.2,0.2-0.3,0.3c-0.1,0.1-0.3,0.1-0.4,0.1c-0.2,0-0.3-0.1-0.4-0.2c-0.1-0.1-0.1-0.3-0.1-0.4c0-0.3,0.1-0.5,0.3-0.7
		c0.2-0.2,0.5-0.3,0.9-0.4V34.5z M179.2,34.8c-0.1,0.1-0.2,0.1-0.3,0.1c-0.2,0-0.3-0.1-0.3-0.2c0-0.1,0-0.2,0-0.3v-2.9h0.9v-0.4
		h-0.9v-1.6h-0.2c-0.3,0.4-0.6,0.8-0.8,1.1c-0.2,0.2-0.4,0.5-0.7,0.7v0.3h0.5v3.1c0,0.2,0.1,0.4,0.2,0.6c0.2,0.3,0.5,0.4,0.9,0.4
		c0.4,0,0.7-0.1,1-0.4c0.1-0.1,0.3-0.4,0.4-0.7l-0.2-0.1C179.3,34.6,179.3,34.8,179.2,34.8z M181,30.4c0.2,0,0.4-0.1,0.5-0.2
		c0.1-0.1,0.2-0.3,0.2-0.5c0-0.2-0.1-0.4-0.2-0.5c-0.1-0.1-0.3-0.2-0.5-0.2c-0.2,0-0.4,0.1-0.5,0.2c-0.1,0.1-0.2,0.3-0.2,0.5
		c0,0.2,0.1,0.4,0.2,0.5C180.6,30.3,180.8,30.4,181,30.4z M181.7,34.7v-3.6h-1.8v0.2c0.2,0,0.3,0.1,0.4,0.2c0.1,0.1,0.1,0.2,0.1,0.4
		v2.8c0,0.2,0,0.4-0.1,0.4c-0.1,0-0.2,0.1-0.4,0.1v0.2h2.3v-0.2c-0.2,0-0.3-0.1-0.4-0.2C181.7,35,181.7,34.9,181.7,34.7z M184.7,31
		c-0.6,0-1.2,0.2-1.6,0.7c-0.4,0.5-0.6,1-0.6,1.6c0,0.6,0.2,1.2,0.6,1.6c0.4,0.4,0.9,0.7,1.6,0.7c0.6,0,1.2-0.2,1.6-0.7
		c0.4-0.4,0.6-1,0.6-1.6c0-0.7-0.2-1.2-0.6-1.7C185.9,31.2,185.4,31,184.7,31z M185.4,34.8c-0.1,0.4-0.3,0.6-0.6,0.6
		c-0.3,0-0.6-0.2-0.7-0.6c-0.1-0.3-0.1-0.7-0.1-1.4c0-0.7,0-1.1,0.1-1.4c0.1-0.4,0.3-0.6,0.6-0.6c0.3,0,0.5,0.2,0.6,0.5
		c0.1,0.3,0.2,0.8,0.2,1.6C185.5,34,185.4,34.5,185.4,34.8z M191.9,35.1c0-0.1-0.1-0.2-0.1-0.4v-2.4c0-0.5-0.1-0.8-0.4-1.1
		c-0.2-0.2-0.5-0.3-0.8-0.3c-0.3,0-0.7,0.1-0.9,0.3c-0.2,0.1-0.3,0.3-0.4,0.5v-0.7h-1.8v0.2c0.2,0,0.3,0.1,0.4,0.1
		c0.1,0.1,0.1,0.2,0.1,0.4v2.8c0,0.2,0,0.4-0.1,0.4c-0.1,0.1-0.2,0.1-0.4,0.1v0.2h2.3v-0.2c-0.2,0-0.3-0.1-0.4-0.2
		c0-0.1-0.1-0.2-0.1-0.3v-2.5c0-0.1,0.1-0.2,0.3-0.3c0.2-0.2,0.4-0.2,0.5-0.2c0.2,0,0.4,0.1,0.5,0.3c0,0.1,0.1,0.3,0.1,0.5v2.3
		c0,0.3-0.1,0.5-0.4,0.5v0.2h2.2v-0.2C192.1,35.2,191.9,35.2,191.9,35.1z M194.7,32.8c-0.7-0.3-1.1-0.7-1.1-0.9
		c0-0.1,0.1-0.3,0.2-0.4c0.1-0.1,0.3-0.2,0.4-0.2c0.3,0,0.5,0.1,0.7,0.3c0.2,0.2,0.4,0.5,0.5,0.8h0.2V31h-0.2
		c-0.1,0.1-0.1,0.2-0.2,0.2c-0.2-0.1-0.4-0.1-0.5-0.1c-0.2,0-0.3-0.1-0.5-0.1c-0.4,0-0.8,0.1-1.1,0.4c-0.3,0.3-0.4,0.6-0.4,1
		c0,0.4,0.2,0.8,0.6,1c0,0,0.4,0.2,1.1,0.6c0.4,0.2,0.6,0.4,0.6,0.7c0,0.2-0.1,0.3-0.2,0.4c-0.1,0.1-0.3,0.2-0.5,0.2
		c-0.4,0-0.6-0.1-0.9-0.3c-0.2-0.2-0.4-0.5-0.5-0.9h-0.3v1.6h0.2c0.1-0.2,0.2-0.3,0.3-0.3c0.2,0.1,0.4,0.1,0.7,0.2
		c0.2,0.1,0.4,0.1,0.6,0.1c0.4,0,0.8-0.1,1.1-0.4c0.3-0.3,0.4-0.6,0.4-1.1C195.9,33.6,195.5,33.1,194.7,32.8z M204.6,35
		c-0.1-0.1-0.3-0.5-0.5-1l-2.1-5h-0.3l-2.1,5.2c-0.2,0.4-0.3,0.7-0.4,0.8c-0.1,0.2-0.3,0.3-0.6,0.3v0.2h1.9v-0.2
		c-0.2,0-0.4,0-0.5-0.1c-0.2-0.1-0.3-0.2-0.3-0.3c0-0.1,0-0.2,0.1-0.4c0.1-0.2,0.2-0.5,0.3-0.8h2.1c0.1,0.3,0.2,0.5,0.3,0.7
		c0.1,0.3,0.2,0.5,0.2,0.6c0,0.2-0.1,0.3-0.2,0.3s-0.3,0.1-0.6,0.1v0.2h3.1v-0.2C204.9,35.2,204.7,35.2,204.6,35z M200.3,33.2
		l0.9-2.3l1,2.3H200.3z M210,34.5v-3.4h-1.9v0.2c0.2,0,0.4,0.1,0.4,0.1c0.1,0.1,0.2,0.2,0.2,0.5v2.7c-0.1,0.1-0.2,0.2-0.3,0.3
		c-0.1,0.1-0.3,0.1-0.5,0.1c-0.2,0-0.4-0.1-0.5-0.2c0-0.1-0.1-0.2-0.1-0.4v-3.2h-1.8v0.2c0.2,0,0.3,0.1,0.4,0.2
		c0.1,0.1,0.1,0.2,0.1,0.4v2.4c0,0.4,0.1,0.7,0.3,0.9c0.2,0.3,0.6,0.4,1,0.4c0.3,0,0.6-0.1,0.8-0.2c0.1-0.1,0.3-0.2,0.5-0.4v0.6
		c0.3-0.1,0.6-0.2,0.9-0.2c0.1,0,0.4,0,1-0.1v-0.2c-0.2,0-0.3,0-0.4-0.1C210,34.9,210,34.7,210,34.5z M213.4,34.8
		c-0.1,0.1-0.2,0.1-0.3,0.1c-0.2,0-0.3-0.1-0.3-0.2c0-0.1,0-0.2,0-0.3v-2.9h0.9v-0.4h-0.9v-1.6h-0.2c-0.3,0.4-0.6,0.8-0.8,1.1
		c-0.2,0.2-0.4,0.5-0.7,0.7v0.3h0.5v3.1c0,0.2,0.1,0.4,0.2,0.6c0.2,0.3,0.5,0.4,0.9,0.4c0.4,0,0.7-0.1,1-0.4
		c0.1-0.1,0.3-0.4,0.4-0.7l-0.2-0.1C213.5,34.6,213.5,34.8,213.4,34.8z M218.6,35c0-0.1-0.1-0.2-0.1-0.3v-2.4c0-0.5-0.1-0.8-0.4-1.1
		c-0.2-0.2-0.5-0.3-0.8-0.3c-0.2,0-0.5,0.1-0.7,0.2c-0.2,0.1-0.4,0.3-0.7,0.6V29h-1.8v0.2c0.2,0,0.3,0.1,0.4,0.2
		c0.1,0.1,0.1,0.2,0.1,0.4v4.9c0,0.2,0,0.4-0.1,0.4c-0.1,0.1-0.2,0.1-0.4,0.1v0.2h2.3v-0.2c-0.2,0-0.3-0.1-0.4-0.2
		c0-0.1-0.1-0.2-0.1-0.3v-2.5c0-0.1,0.1-0.2,0.3-0.3c0.2-0.2,0.4-0.2,0.5-0.2c0.2,0,0.4,0.1,0.5,0.3c0,0.1,0.1,0.3,0.1,0.5v2.3
		c0,0.3-0.1,0.5-0.4,0.5v0.2h2.2v-0.2C218.8,35.2,218.7,35.2,218.6,35z M221.6,31c-0.6,0-1.2,0.2-1.6,0.7c-0.4,0.5-0.6,1-0.6,1.6
		c0,0.6,0.2,1.2,0.6,1.6c0.4,0.4,0.9,0.7,1.6,0.7c0.6,0,1.2-0.2,1.6-0.7c0.4-0.4,0.6-1,0.6-1.6c0-0.7-0.2-1.2-0.6-1.7
		C222.7,31.2,222.2,31,221.6,31z M222.2,34.8c-0.1,0.4-0.3,0.6-0.6,0.6c-0.3,0-0.6-0.2-0.7-0.6c-0.1-0.3-0.1-0.7-0.1-1.4
		c0-0.7,0-1.1,0.1-1.4c0.1-0.4,0.3-0.6,0.6-0.6c0.3,0,0.5,0.2,0.6,0.5c0.1,0.3,0.2,0.8,0.2,1.6C222.3,34,222.3,34.5,222.2,34.8z
		 M227.3,31c-0.3,0-0.5,0.1-0.8,0.3c-0.1,0.1-0.3,0.3-0.5,0.5v-0.8h-1.8v0.2c0.2,0,0.3,0.1,0.4,0.1c0.1,0.1,0.1,0.2,0.1,0.4v2.8
		c0,0.2,0,0.4-0.1,0.4c-0.1,0-0.2,0.1-0.4,0.1v0.2h2.5v-0.2c-0.3,0-0.5-0.1-0.6-0.2c-0.1-0.1-0.1-0.3-0.1-0.6v-1.8
		c0-0.2,0-0.4,0.1-0.6c0.1-0.2,0.3-0.3,0.4-0.3c0.1,0,0.2,0.1,0.3,0.2c0.2,0.3,0.4,0.4,0.6,0.4c0.2,0,0.4-0.1,0.5-0.2
		c0.1-0.1,0.1-0.3,0.1-0.4c0-0.2-0.1-0.3-0.2-0.5C227.8,31.1,227.6,31,227.3,31z M229.5,30.4c0.2,0,0.4-0.1,0.5-0.2
		c0.1-0.1,0.2-0.3,0.2-0.5c0-0.2-0.1-0.4-0.2-0.5c-0.1-0.1-0.3-0.2-0.5-0.2c-0.2,0-0.4,0.1-0.5,0.2c-0.1,0.1-0.2,0.3-0.2,0.5
		c0,0.2,0.1,0.4,0.2,0.5C229.1,30.3,229.3,30.4,229.5,30.4z M230.2,34.7v-3.6h-1.8v0.2c0.2,0,0.3,0.1,0.4,0.2
		c0.1,0.1,0.1,0.2,0.1,0.4v2.8c0,0.2,0,0.4-0.1,0.4c-0.1,0-0.2,0.1-0.4,0.1v0.2h2.3v-0.2c-0.2,0-0.3-0.1-0.4-0.2
		C230.2,35,230.2,34.9,230.2,34.7z M233.5,34.8c-0.1,0.1-0.2,0.1-0.3,0.1c-0.2,0-0.3-0.1-0.3-0.2c0-0.1,0-0.2,0-0.3v-2.9h0.9v-0.4
		h-0.9v-1.6h-0.2c-0.3,0.4-0.6,0.8-0.8,1.1c-0.2,0.2-0.4,0.5-0.7,0.7v0.3h0.5v3.1c0,0.2,0.1,0.4,0.2,0.6c0.2,0.3,0.5,0.4,0.9,0.4
		c0.4,0,0.7-0.1,1-0.4c0.1-0.1,0.3-0.4,0.4-0.7l-0.2-0.1C233.7,34.6,233.6,34.8,233.5,34.8z M237.2,31.1v0.2c0.2,0,0.3,0,0.4,0.1
		c0.1,0,0.1,0.1,0.1,0.3c0,0.1,0,0.1,0,0.2c0,0,0,0.1-0.1,0.2l-0.7,1.8l-0.7-1.7c0-0.1-0.1-0.1-0.1-0.3c-0.1-0.1-0.1-0.2-0.1-0.3
		c0-0.1,0-0.2,0.1-0.2c0.1,0,0.2-0.1,0.4-0.1v-0.2h-2.4v0.2c0.1,0,0.2,0,0.3,0.1c0,0,0.1,0.1,0.2,0.2c0.1,0.1,0.1,0.3,0.2,0.4
		c0.1,0.3,0.2,0.5,0.3,0.8l1.1,2.8l-0.2,0.5c-0.1,0.2-0.1,0.3-0.2,0.5c-0.1,0.2-0.3,0.3-0.4,0.3c-0.1,0-0.2-0.1-0.2-0.2
		c0,0,0-0.1,0-0.2c0-0.1,0-0.2-0.1-0.3c-0.1-0.1-0.2-0.2-0.4-0.2c-0.2,0-0.4,0.1-0.5,0.3c-0.1,0.1-0.1,0.2-0.1,0.4
		c0,0.2,0.1,0.3,0.2,0.5c0.2,0.2,0.4,0.3,0.7,0.3c0.5,0,0.9-0.2,1.1-0.7c0.1-0.2,0.3-0.6,0.5-1.1l1.4-3.8c0.1-0.2,0.2-0.4,0.3-0.4
		c0.1,0,0.1-0.1,0.3-0.1v-0.2H237.2z"></path></g></svg>